<svg xmlns="http://www.w3.org/2000/svg" xmlns:xlink="http://www.w3.org/1999/xlink" width="310" zoomAndPan="magnify" viewBox="0 0 232.5 67.499998" height="90" preserveAspectRatio="xMidYMid meet" version="1.0"><defs><g/><clipPath id="13c4006a65"><path d="M 0.605469 0 L 231.398438 0 L 231.398438 67.003906 L 0.605469 67.003906 Z M 0.605469 0 " clip-rule="nonzero"/></clipPath><clipPath id="b8d3af5166"><path d="M 0.605469 0 L 56.441406 0 L 56.441406 28.246094 L 0.605469 28.246094 Z M 0.605469 0 " clip-rule="nonzero"/></clipPath><clipPath id="75bc13f3bd"><path d="M 181 31.683594 L 231.398438 31.683594 L 231.398438 67.003906 L 181 67.003906 Z M 181 31.683594 " clip-rule="nonzero"/></clipPath><clipPath id="b50d14bd32"><path d="M 0.605469 1 L 61 1 L 61 49 L 0.605469 49 Z M 0.605469 1 " clip-rule="nonzero"/></clipPath><clipPath id="f075a2a16c"><path d="M 39.90625 -16.476562 L 69.261719 18.171875 L 21.546875 58.597656 L -7.808594 23.945312 Z M 39.90625 -16.476562 " clip-rule="nonzero"/></clipPath><clipPath id="8fb41216d2"><path d="M 69.382812 18.316406 L 40.027344 -16.335938 L -7.6875 24.085938 L 21.667969 58.738281 Z M 69.382812 18.316406 " clip-rule="nonzero"/></clipPath><clipPath id="a9210ac189"><path d="M 69.324219 18.246094 L 39.964844 -16.410156 L -7.929688 24.167969 L 21.429688 58.824219 Z M 69.324219 18.246094 " clip-rule="nonzero"/></clipPath><clipPath id="bab44346e0"><path d="M 69.324219 18.246094 L 39.976562 -16.394531 L -7.695312 23.992188 L 21.652344 58.636719 Z M 69.324219 18.246094 " clip-rule="nonzero"/></clipPath><clipPath id="31b725f756"><path d="M 204 17 L 231.398438 17 L 231.398438 67.003906 L 204 67.003906 Z M 204 17 " clip-rule="nonzero"/></clipPath><clipPath id="8e37d96b94"><path d="M 193.621094 26.035156 L 227.109375 13.570312 L 244.25 59.621094 L 210.757812 72.085938 Z M 193.621094 26.035156 " clip-rule="nonzero"/></clipPath><clipPath id="6936c5f3cb"><path d="M 227.351562 13.480469 L 193.859375 25.945312 L 211 71.996094 L 244.488281 59.53125 Z M 227.351562 13.480469 " clip-rule="nonzero"/></clipPath><clipPath id="8f709d1dab"><path d="M 227.28125 13.507812 L 193.6875 26.011719 L 210.96875 72.4375 L 244.5625 59.9375 Z M 227.28125 13.507812 " clip-rule="nonzero"/></clipPath><clipPath id="e70fedbab9"><path d="M 227.28125 13.507812 L 193.703125 26.003906 L 210.902344 72.21875 L 244.480469 59.71875 Z M 227.28125 13.507812 " clip-rule="nonzero"/></clipPath><clipPath id="b2f1700c00"><path d="M 75 1 L 83.675781 1 L 83.675781 8 L 75 8 Z M 75 1 " clip-rule="nonzero"/></clipPath><clipPath id="fe29518f1b"><path d="M 68.785156 5 L 76 5 L 76 13 L 68.785156 13 Z M 68.785156 5 " clip-rule="nonzero"/></clipPath><clipPath id="04428ae24a"><path d="M 8.773438 50.445312 L 15 50.445312 L 15 57 L 8.773438 57 Z M 8.773438 50.445312 " clip-rule="nonzero"/></clipPath><clipPath id="455ce69551"><path d="M 13 55 L 19.199219 55 L 19.199219 60 L 13 60 Z M 13 55 " clip-rule="nonzero"/></clipPath><clipPath id="874682d7c1"><path d="M 8.773438 58 L 14 58 L 14 63.101562 L 8.773438 63.101562 Z M 8.773438 58 " clip-rule="nonzero"/></clipPath><clipPath id="b8141cd786"><path d="M 197 9 L 205 9 L 205 17 L 197 17 Z M 197 9 " clip-rule="nonzero"/></clipPath><clipPath id="d5dccb9e7f"><path d="M 206.738281 19.402344 L 195.878906 14.503906 L 201.386719 2.289062 L 212.246094 7.1875 Z M 206.738281 19.402344 " clip-rule="nonzero"/></clipPath><clipPath id="2999af7d73"><path d="M 206.738281 19.402344 L 195.878906 14.503906 L 201.386719 2.289062 L 212.246094 7.1875 Z M 206.738281 19.402344 " clip-rule="nonzero"/></clipPath><clipPath id="7b5370c0c6"><path d="M 206 6 L 211 6 L 211 12 L 206 12 Z M 206 6 " clip-rule="nonzero"/></clipPath><clipPath id="84ccb3f9fa"><path d="M 206.738281 19.402344 L 195.878906 14.503906 L 201.386719 2.289062 L 212.246094 7.1875 Z M 206.738281 19.402344 " clip-rule="nonzero"/></clipPath><clipPath id="001411dd5d"><path d="M 206.738281 19.402344 L 195.878906 14.503906 L 201.386719 2.289062 L 212.246094 7.1875 Z M 206.738281 19.402344 " clip-rule="nonzero"/></clipPath><clipPath id="31ed69c7b4"><path d="M 200 3 L 206 3 L 206 9 L 200 9 Z M 200 3 " clip-rule="nonzero"/></clipPath><clipPath id="eb015c4e54"><path d="M 206.738281 19.402344 L 195.878906 14.503906 L 201.386719 2.289062 L 212.246094 7.1875 Z M 206.738281 19.402344 " clip-rule="nonzero"/></clipPath><clipPath id="5dcecabd54"><path d="M 206.738281 19.402344 L 195.878906 14.503906 L 201.386719 2.289062 L 212.246094 7.1875 Z M 206.738281 19.402344 " clip-rule="nonzero"/></clipPath><clipPath id="e9ee2546e6"><path d="M 76 59 L 82 59 L 82 65 L 76 65 Z M 76 59 " clip-rule="nonzero"/></clipPath><clipPath id="c3e342429e"><path d="M 82.703125 57.503906 L 80.261719 65.320312 L 71.734375 62.660156 L 74.175781 54.84375 Z M 82.703125 57.503906 " clip-rule="nonzero"/></clipPath><clipPath id="7cf02488df"><path d="M 82.703125 57.503906 L 80.261719 65.320312 L 71.734375 62.660156 L 74.175781 54.84375 Z M 82.703125 57.503906 " clip-rule="nonzero"/></clipPath><clipPath id="1af04d5b74"><path d="M 73 55 L 77 55 L 77 59 L 73 59 Z M 73 55 " clip-rule="nonzero"/></clipPath><clipPath id="2ba300910d"><path d="M 82.703125 57.503906 L 80.261719 65.320312 L 71.734375 62.660156 L 74.175781 54.84375 Z M 82.703125 57.503906 " clip-rule="nonzero"/></clipPath><clipPath id="8cc2df71f6"><path d="M 82.703125 57.503906 L 80.261719 65.320312 L 71.734375 62.660156 L 74.175781 54.84375 Z M 82.703125 57.503906 " clip-rule="nonzero"/></clipPath><clipPath id="d70d663bf7"><path d="M 72 59 L 76 59 L 76 64 L 72 64 Z M 72 59 " clip-rule="nonzero"/></clipPath><clipPath id="ea2f1fbe71"><path d="M 82.703125 57.503906 L 80.261719 65.320312 L 71.734375 62.660156 L 74.175781 54.84375 Z M 82.703125 57.503906 " clip-rule="nonzero"/></clipPath><clipPath id="1335e6c722"><path d="M 82.703125 57.503906 L 80.261719 65.320312 L 71.734375 62.660156 L 74.175781 54.84375 Z M 82.703125 57.503906 " clip-rule="nonzero"/></clipPath><clipPath id="4ab2f623c7"><path d="M 173.523438 58.007812 L 177.375 58.007812 L 177.375 61.855469 L 173.523438 61.855469 Z M 173.523438 58.007812 " clip-rule="nonzero"/></clipPath><clipPath id="3f2131a281"><path d="M 175.449219 58.007812 C 174.386719 58.007812 173.523438 58.867188 173.523438 59.933594 C 173.523438 60.996094 174.386719 61.855469 175.449219 61.855469 C 176.511719 61.855469 177.375 60.996094 177.375 59.933594 C 177.375 58.867188 176.511719 58.007812 175.449219 58.007812 Z M 175.449219 58.007812 " clip-rule="nonzero"/></clipPath><clipPath id="b186be8805"><path d="M 196.671875 23.617188 L 197.695312 23.617188 L 197.695312 24.640625 L 196.671875 24.640625 Z M 196.671875 23.617188 " clip-rule="nonzero"/></clipPath><clipPath id="533bb41615"><path d="M 197.183594 23.617188 C 196.902344 23.617188 196.671875 23.847656 196.671875 24.128906 C 196.671875 24.414062 196.902344 24.640625 197.183594 24.640625 C 197.46875 24.640625 197.695312 24.414062 197.695312 24.128906 C 197.695312 23.847656 197.46875 23.617188 197.183594 23.617188 Z M 197.183594 23.617188 " clip-rule="nonzero"/></clipPath><clipPath id="d6eedd5973"><path d="M 170.707031 63.136719 L 172 63.136719 L 172 64.429688 L 170.707031 64.429688 Z M 170.707031 63.136719 " clip-rule="nonzero"/></clipPath><clipPath id="5165a4d484"><path d="M 171.355469 63.136719 C 171 63.136719 170.707031 63.425781 170.707031 63.78125 C 170.707031 64.140625 171 64.429688 171.355469 64.429688 C 171.710938 64.429688 172 64.140625 172 63.78125 C 172 63.425781 171.710938 63.136719 171.355469 63.136719 Z M 171.355469 63.136719 " clip-rule="nonzero"/></clipPath><clipPath id="33187ce307"><path d="M 195.898438 19.40625 L 198.46875 19.40625 L 198.46875 21.976562 L 195.898438 21.976562 Z M 195.898438 19.40625 " clip-rule="nonzero"/></clipPath><clipPath id="1dbc2074d6"><path d="M 197.183594 19.40625 C 196.476562 19.40625 195.898438 19.980469 195.898438 20.691406 C 195.898438 21.402344 196.476562 21.976562 197.183594 21.976562 C 197.894531 21.976562 198.46875 21.402344 198.46875 20.691406 C 198.46875 19.980469 197.894531 19.40625 197.183594 19.40625 Z M 197.183594 19.40625 " clip-rule="nonzero"/></clipPath><clipPath id="d3c545c9c3"><path d="M 65.863281 18.191406 L 68.785156 18.191406 L 68.785156 21.109375 L 65.863281 21.109375 Z M 65.863281 18.191406 " clip-rule="nonzero"/></clipPath><clipPath id="696f1a6bde"><path d="M 67.324219 18.191406 C 66.519531 18.191406 65.863281 18.84375 65.863281 19.652344 C 65.863281 20.457031 66.519531 21.109375 67.324219 21.109375 C 68.132812 21.109375 68.785156 20.457031 68.785156 19.652344 C 68.785156 18.84375 68.132812 18.191406 67.324219 18.191406 Z M 67.324219 18.191406 " clip-rule="nonzero"/></clipPath><clipPath id="0d6e56aad9"><path d="M 13.949219 41.574219 L 16.527344 41.574219 L 16.527344 44.152344 L 13.949219 44.152344 Z M 13.949219 41.574219 " clip-rule="nonzero"/></clipPath><clipPath id="d6f88d438c"><path d="M 15.238281 41.574219 C 14.527344 41.574219 13.949219 42.152344 13.949219 42.863281 C 13.949219 43.574219 14.527344 44.152344 15.238281 44.152344 C 15.949219 44.152344 16.527344 43.574219 16.527344 42.863281 C 16.527344 42.152344 15.949219 41.574219 15.238281 41.574219 Z M 15.238281 41.574219 " clip-rule="nonzero"/></clipPath></defs><g clip-path="url(#13c4006a65)"><path fill="#ffffff" d="M 0.605469 0 L 231.398438 0 L 231.398438 67.003906 L 0.605469 67.003906 Z M 0.605469 0 " fill-opacity="1" fill-rule="nonzero"/><path fill="#f1e2dc" d="M 0.605469 0 L 231.398438 0 L 231.398438 67.003906 L 0.605469 67.003906 Z M 0.605469 0 " fill-opacity="1" fill-rule="nonzero"/></g><g clip-path="url(#b8d3af5166)"><path fill="#fb6d4d" d="M 12.652344 -15.597656 C 9.378906 -15.625 6.574219 -14.664062 3.828125 -13.46875 C 1.378906 -12.402344 -0.667969 -10.816406 -2.367188 -8.773438 C -4.191406 -6.582031 -4.570312 -4.15625 -3.417969 -1.574219 C -2.875 -0.363281 -2.15625 0.777344 -1.4375 1.902344 C -0.722656 3.023438 -0.113281 4.183594 -0.175781 5.527344 C -0.238281 6.886719 -0.445312 8.242188 -0.613281 9.597656 C -0.769531 10.851562 -1.074219 12.101562 -1.113281 13.359375 C -1.234375 17.28125 0.144531 20.679688 2.765625 23.601562 C 5.636719 26.808594 9.253906 28.242188 13.527344 28.042969 C 14.355469 28.003906 15.230469 27.773438 15.980469 27.414062 C 17.214844 26.824219 18.429688 26.152344 19.542969 25.359375 C 21.742188 23.792969 24.125 22.714844 26.8125 22.363281 C 28.144531 22.1875 29.480469 22.179688 30.8125 22.480469 C 33.363281 23.058594 35.933594 23.285156 38.496094 22.621094 C 40.683594 22.050781 42.636719 21.019531 44.277344 19.4375 C 45.476562 18.285156 45.808594 16.914062 45.480469 15.335938 C 45.097656 13.457031 44.707031 11.578125 44.332031 9.699219 C 44.074219 8.398438 44.210938 7.105469 44.503906 5.828125 C 44.679688 5.054688 45.121094 4.445312 45.882812 4.160156 C 46.613281 3.886719 47.363281 3.640625 48.125 3.464844 C 49.597656 3.121094 51.066406 2.785156 52.375 1.996094 C 54.207031 0.894531 55.574219 -0.558594 56.105469 -2.695312 C 56.457031 -4.101562 56.269531 -5.453125 55.566406 -6.660156 C 53.457031 -10.285156 50.414062 -12.753906 46.25 -13.746094 C 44.753906 -14.101562 43.308594 -13.855469 41.914062 -13.324219 C 40.71875 -12.871094 39.546875 -12.363281 38.386719 -11.832031 C 36.488281 -10.960938 34.542969 -10.390625 32.410156 -10.496094 C 30.808594 -10.574219 29.324219 -11.050781 27.832031 -11.542969 C 24.539062 -12.625 21.257812 -13.75 17.949219 -14.785156 C 16.164062 -15.339844 14.320312 -15.640625 12.652344 -15.597656 Z M 12.652344 -15.597656 " fill-opacity="1" fill-rule="evenodd"/></g><g clip-path="url(#75bc13f3bd)"><path fill="#fb6d4d" d="M 198.597656 31.765625 C 195.160156 31.738281 192.21875 32.75 189.339844 34.003906 C 186.769531 35.125 184.625 36.792969 182.839844 38.9375 C 180.929688 41.242188 180.53125 43.789062 181.742188 46.503906 C 182.308594 47.777344 183.066406 48.976562 183.816406 50.160156 C 184.566406 51.335938 185.207031 52.554688 185.140625 53.96875 C 185.074219 55.398438 184.859375 56.820312 184.683594 58.242188 C 184.519531 59.5625 184.199219 60.875 184.160156 62.199219 C 184.03125 66.320312 185.476562 69.890625 188.226562 72.964844 C 191.234375 76.332031 195.03125 77.839844 199.511719 77.628906 C 200.382812 77.589844 201.296875 77.34375 202.085938 76.96875 C 203.382812 76.351562 204.652344 75.640625 205.820312 74.808594 C 208.128906 73.164062 210.625 72.03125 213.445312 71.660156 C 214.84375 71.476562 216.246094 71.46875 217.640625 71.785156 C 220.3125 72.390625 223.011719 72.632812 225.699219 71.933594 C 227.996094 71.332031 230.042969 70.25 231.765625 68.585938 C 233.019531 67.378906 233.367188 65.933594 233.027344 64.277344 C 232.621094 62.300781 232.214844 60.328125 231.820312 58.355469 C 231.550781 56.984375 231.691406 55.625 232 54.285156 C 232.183594 53.46875 232.648438 52.832031 233.445312 52.53125 C 234.210938 52.242188 235 51.984375 235.796875 51.800781 C 237.339844 51.4375 238.882812 51.085938 240.253906 50.257812 C 242.175781 49.101562 243.609375 47.570312 244.167969 45.328125 C 244.535156 43.847656 244.339844 42.425781 243.605469 41.160156 C 241.390625 37.347656 238.195312 34.753906 233.828125 33.714844 C 232.261719 33.339844 230.746094 33.597656 229.28125 34.15625 C 228.03125 34.632812 226.800781 35.164062 225.585938 35.722656 C 223.589844 36.640625 221.550781 37.238281 219.316406 37.128906 C 217.636719 37.046875 216.078125 36.542969 214.515625 36.027344 C 211.058594 34.890625 207.621094 33.710938 204.148438 32.621094 C 202.277344 32.035156 200.34375 31.722656 198.597656 31.765625 Z M 198.597656 31.765625 " fill-opacity="1" fill-rule="evenodd"/></g><g clip-path="url(#b50d14bd32)"><g clip-path="url(#f075a2a16c)"><g clip-path="url(#8fb41216d2)"><g clip-path="url(#a9210ac189)"><g clip-path="url(#bab44346e0)"><path fill="#232941" d="M 56.605469 5.578125 C 58.957031 8.351562 59.484375 12.824219 59.058594 16.71875 C 58.242188 24.121094 53.828125 32.140625 46.960938 33.15625 C 43.921875 33.601562 42.0625 33.246094 40.566406 32.957031 C 36.691406 32.214844 35.269531 32.433594 28.359375 42.109375 C 26.351562 44.925781 23.226562 46.644531 19.78125 46.832031 C 16.351562 47.019531 13.070312 45.652344 10.785156 43.085938 C 8.480469 40.503906 6.8125 38.644531 5.566406 37.265625 C 5.445312 37.136719 5.328125 37 5.214844 36.863281 C 0.0898438 30.8125 0.0351562 21.855469 5.160156 15.804688 C 9.390625 10.8125 13.339844 8.234375 16.886719 8.140625 C 19.464844 8.074219 21.96875 9.320312 24.335938 11.839844 C 29.769531 17.625 34.886719 13.246094 39.839844 9.011719 C 44.140625 5.332031 48.589844 1.523438 53.628906 3.457031 C 54.84375 3.921875 55.824219 4.660156 56.605469 5.578125 Z M 4.046875 37.855469 C 4.171875 38.003906 4.300781 38.148438 4.429688 38.292969 C 5.675781 39.667969 7.34375 41.527344 9.644531 44.105469 C 12.242188 47.019531 15.964844 48.570312 19.863281 48.359375 C 23.773438 48.148438 27.328125 46.195312 29.605469 43 C 36.25 33.691406 37.269531 33.886719 40.277344 34.460938 C 41.804688 34.753906 43.886719 35.152344 47.183594 34.667969 C 54.820312 33.542969 59.699219 24.871094 60.578125 16.886719 C 61.386719 9.539062 58.933594 3.847656 54.175781 2.027344 C 48.289062 -0.230469 43.269531 4.0625 38.84375 7.847656 C 33.289062 12.597656 29.667969 15.285156 25.453125 10.792969 C 22.773438 7.941406 19.878906 6.53125 16.851562 6.609375 C 12.789062 6.714844 8.582031 9.398438 3.992188 14.816406 C -1.617188 21.433594 -1.558594 31.238281 4.046875 37.855469 " fill-opacity="1" fill-rule="nonzero"/></g></g></g></g></g><g clip-path="url(#31b725f756)"><g clip-path="url(#8e37d96b94)"><g clip-path="url(#6936c5f3cb)"><g clip-path="url(#8f709d1dab)"><g clip-path="url(#e70fedbab9)"><path fill="#232941" d="M 214.46875 19.554688 C 217.160156 18.550781 220.617188 19.359375 223.394531 20.71875 C 228.671875 23.308594 233.441406 28.734375 232.351562 34.105469 C 231.871094 36.480469 231.105469 37.765625 230.492188 38.796875 C 228.90625 41.472656 228.683594 42.589844 234.015625 50.3125 C 235.566406 52.554688 236.003906 55.339844 235.21875 57.945312 C 234.4375 60.542969 232.546875 62.609375 230.027344 63.621094 C 227.496094 64.636719 225.664062 65.375 224.308594 65.933594 C 224.179688 65.984375 224.046875 66.035156 223.917969 66.085938 C 218.050781 68.269531 211.386719 65.90625 208.269531 60.480469 C 205.699219 56 204.839844 52.378906 205.726562 49.722656 C 206.367188 47.792969 207.960938 46.265625 210.46875 45.183594 C 216.21875 42.703125 214.339844 37.730469 212.523438 32.917969 C 210.945312 28.738281 209.3125 24.414062 212.097656 21.191406 C 212.769531 20.417969 213.578125 19.886719 214.46875 19.554688 Z M 224.335938 67.21875 C 224.480469 67.164062 224.625 67.109375 224.765625 67.050781 C 226.121094 66.496094 227.949219 65.753906 230.480469 64.738281 C 233.339844 63.59375 235.488281 61.242188 236.375 58.292969 C 237.265625 55.332031 236.769531 52.171875 235.011719 49.625 C 229.878906 42.195312 230.296875 41.496094 231.53125 39.414062 C 232.15625 38.359375 233.011719 36.921875 233.539062 34.34375 C 234.75 28.375 229.621094 22.425781 223.929688 19.636719 C 218.691406 17.066406 213.808594 17.363281 211.183594 20.402344 C 207.929688 24.167969 209.769531 29.042969 211.394531 33.34375 C 213.429688 38.742188 214.453125 42.148438 209.988281 44.074219 C 207.15625 45.296875 205.332031 47.070312 204.578125 49.339844 C 203.566406 52.382812 204.433594 56.222656 207.222656 61.082031 C 210.632812 67.019531 217.921875 69.605469 224.335938 67.21875 " fill-opacity="1" fill-rule="nonzero"/></g></g></g></g></g><path fill="#232941" d="M 70.398438 2.761719 C 70.449219 2.320312 70.488281 1.960938 70.613281 1.605469 C 70.722656 1.292969 70.753906 0.945312 70.8125 0.613281 C 70.824219 0.535156 70.773438 0.488281 70.699219 0.484375 C 70.582031 0.476562 70.464844 0.464844 70.351562 0.472656 C 70.207031 0.484375 70.066406 0.519531 69.921875 0.542969 C 69.609375 0.59375 69.355469 0.472656 69.144531 0.257812 C 69 0.113281 69.019531 -0.0898438 69.082031 -0.257812 C 69.132812 -0.402344 69.230469 -0.539062 69.34375 -0.644531 C 69.730469 -0.992188 70.148438 -1.308594 70.523438 -1.667969 C 70.753906 -1.886719 71.027344 -2.042969 71.253906 -2.257812 C 71.386719 -2.386719 71.496094 -2.503906 71.488281 -2.722656 C 71.480469 -2.921875 71.535156 -3.136719 71.605469 -3.328125 C 71.75 -3.730469 71.753906 -4.175781 72 -4.546875 C 72.042969 -4.605469 72.046875 -4.691406 72.066406 -4.765625 C 72.097656 -4.878906 72.144531 -4.992188 72.15625 -5.105469 C 72.1875 -5.378906 72.371094 -5.429688 72.597656 -5.445312 C 72.835938 -5.46875 72.984375 -5.371094 73.09375 -5.15625 C 73.226562 -4.898438 73.328125 -4.636719 73.367188 -4.34375 C 73.390625 -4.179688 73.453125 -4.015625 73.515625 -3.859375 C 73.578125 -3.699219 73.722656 -3.648438 73.867188 -3.71875 C 74.207031 -3.890625 74.539062 -4.070312 74.875 -4.25 C 74.910156 -4.265625 74.9375 -4.304688 74.972656 -4.3125 C 75.425781 -4.386719 75.820312 -4.660156 76.285156 -4.691406 C 76.449219 -4.699219 76.617188 -4.707031 76.785156 -4.691406 C 76.964844 -4.675781 77.171875 -4.390625 77.1875 -4.164062 C 77.195312 -4.03125 77.175781 -3.902344 77.09375 -3.792969 C 76.792969 -3.382812 76.550781 -2.933594 76.179688 -2.570312 C 75.84375 -2.242188 75.542969 -1.882812 75.179688 -1.578125 C 75.015625 -1.441406 74.898438 -1.238281 74.777344 -1.054688 C 74.738281 -0.996094 74.734375 -0.902344 74.746094 -0.828125 C 74.777344 -0.703125 74.808594 -0.570312 74.878906 -0.464844 C 75.140625 -0.078125 75.253906 0.367188 75.421875 0.792969 C 75.515625 1.023438 75.46875 1.257812 75.4375 1.488281 C 75.417969 1.628906 75.320312 1.722656 75.195312 1.78125 C 75.074219 1.84375 74.972656 1.816406 74.835938 1.753906 C 74.597656 1.644531 74.367188 1.519531 74.171875 1.355469 C 73.941406 1.15625 73.65625 1.054688 73.414062 0.875 C 73.308594 0.796875 73.035156 0.832031 72.945312 0.933594 C 72.765625 1.136719 72.519531 1.277344 72.394531 1.539062 C 72.335938 1.660156 72.222656 1.761719 72.125 1.867188 C 71.792969 2.210938 71.609375 2.644531 71.421875 3.074219 C 71.34375 3.253906 71.167969 3.277344 71.03125 3.367188 C 70.910156 3.453125 70.777344 3.367188 70.664062 3.300781 C 70.601562 3.265625 70.53125 3.207031 70.503906 3.144531 C 70.449219 2.992188 70.417969 2.835938 70.398438 2.761719 Z M 72.539062 0.0273438 C 72.609375 -0.0117188 72.707031 -0.046875 72.78125 -0.109375 C 72.941406 -0.242188 73.089844 -0.394531 73.25 -0.53125 C 73.488281 -0.734375 73.535156 -0.882812 73.425781 -1.183594 C 73.300781 -1.523438 73.167969 -1.863281 73.035156 -2.207031 C 73.03125 -2.21875 73.03125 -2.238281 73.019531 -2.242188 C 72.976562 -2.257812 72.914062 -2.300781 72.886719 -2.285156 C 72.621094 -2.117188 72.335938 -1.964844 72.359375 -1.578125 C 72.382812 -1.21875 72.296875 -0.878906 72.195312 -0.539062 C 72.171875 -0.464844 72.15625 -0.386719 72.152344 -0.308594 C 72.140625 -0.164062 72.183594 -0.0898438 72.320312 -0.0351562 C 72.378906 -0.0117188 72.441406 0 72.539062 0.0273438 Z M 76.097656 -3.757812 C 76.042969 -3.757812 76.015625 -3.765625 75.992188 -3.757812 C 75.613281 -3.617188 75.210938 -3.539062 74.867188 -3.308594 C 74.734375 -3.21875 74.601562 -3.125 74.417969 -3.09375 C 74.277344 -3.070312 74.15625 -2.9375 74.03125 -2.839844 C 74.003906 -2.820312 74 -2.742188 74.007812 -2.699219 C 74.066406 -2.398438 74.167969 -2.121094 74.363281 -1.878906 C 74.417969 -1.8125 74.472656 -1.820312 74.53125 -1.859375 C 74.597656 -1.902344 74.660156 -1.953125 74.714844 -2.007812 C 75.066406 -2.375 75.421875 -2.742188 75.761719 -3.121094 C 75.898438 -3.273438 76.003906 -3.460938 76.113281 -3.636719 C 76.128906 -3.664062 76.105469 -3.71875 76.097656 -3.757812 Z M 70.753906 -0.269531 C 70.851562 -0.261719 70.886719 -0.285156 70.929688 -0.429688 C 70.953125 -0.515625 70.972656 -0.605469 70.984375 -0.695312 C 70.988281 -0.726562 70.96875 -0.777344 70.945312 -0.796875 C 70.921875 -0.8125 70.863281 -0.808594 70.839844 -0.792969 C 70.699219 -0.679688 70.558594 -0.566406 70.425781 -0.445312 C 70.371094 -0.398438 70.40625 -0.332031 70.484375 -0.316406 C 70.5625 -0.296875 70.636719 -0.289062 70.753906 -0.269531 Z M 74 0.398438 C 73.976562 0.3125 73.972656 0.242188 73.945312 0.1875 C 73.910156 0.117188 73.847656 0.0507812 73.761719 0.0820312 C 73.695312 0.105469 73.617188 0.160156 73.585938 0.222656 C 73.542969 0.3125 73.632812 0.355469 73.703125 0.390625 C 73.761719 0.417969 73.820312 0.453125 73.878906 0.460938 C 73.914062 0.46875 73.957031 0.421875 74 0.398438 Z M 72.058594 0.585938 C 72.023438 0.609375 71.984375 0.636719 71.945312 0.664062 C 71.964844 0.6875 72 0.738281 72.011719 0.734375 C 72.050781 0.714844 72.085938 0.679688 72.121094 0.652344 C 72.105469 0.632812 72.089844 0.617188 72.058594 0.585938 Z M 72.058594 0.585938 " fill-opacity="1" fill-rule="nonzero"/><g clip-path="url(#b2f1700c00)"><path fill="#232941" d="M 82.566406 3.96875 C 82.570312 3.957031 82.566406 4.027344 82.53125 4.058594 C 82.429688 4.136719 82.359375 4.25 82.214844 4.28125 C 82.125 4.300781 82.054688 4.398438 81.976562 4.460938 C 81.777344 4.609375 81.582031 4.765625 81.378906 4.902344 C 81.273438 4.976562 81.25 5.0625 81.277344 5.171875 C 81.332031 5.394531 81.480469 5.566406 81.625 5.730469 C 81.792969 5.921875 81.894531 6.148438 81.988281 6.371094 C 82.109375 6.65625 82.082031 6.933594 81.863281 7.171875 C 81.738281 7.3125 81.601562 7.382812 81.449219 7.277344 C 81.308594 7.175781 81.140625 7.246094 81.015625 7.148438 C 80.902344 7.0625 80.785156 6.976562 80.667969 6.894531 C 80.363281 6.667969 80.023438 6.503906 79.671875 6.359375 C 79.5625 6.3125 79.46875 6.3125 79.378906 6.386719 C 79.226562 6.507812 79.046875 6.585938 78.90625 6.730469 C 78.800781 6.839844 78.648438 6.898438 78.519531 6.980469 C 78.464844 7.015625 78.414062 7.054688 78.363281 7.09375 C 78.304688 7.144531 78.25 7.207031 78.1875 7.246094 C 77.84375 7.460938 77.496094 7.667969 77.152344 7.875 C 77.109375 7.898438 77.054688 7.914062 77.003906 7.921875 C 76.917969 7.929688 76.832031 7.90625 76.828125 7.808594 C 76.816406 7.648438 76.777344 7.503906 76.695312 7.363281 C 76.636719 7.265625 76.675781 7.171875 76.710938 7.066406 C 76.832031 6.675781 77.011719 6.3125 77.179688 5.949219 C 77.21875 5.867188 77.179688 5.8125 77.097656 5.828125 C 76.914062 5.867188 76.738281 5.882812 76.574219 5.765625 C 76.550781 5.746094 76.476562 5.777344 76.441406 5.808594 C 76.238281 5.996094 75.988281 5.980469 75.742188 5.957031 C 75.582031 5.9375 75.507812 5.796875 75.445312 5.667969 C 75.429688 5.632812 75.441406 5.550781 75.472656 5.523438 C 75.566406 5.4375 75.628906 5.332031 75.765625 5.277344 C 76.207031 5.09375 76.636719 4.882812 77.070312 4.6875 C 77.113281 4.667969 77.167969 4.671875 77.21875 4.664062 C 77.261719 4.660156 77.339844 4.671875 77.351562 4.648438 C 77.433594 4.507812 77.574219 4.464844 77.707031 4.425781 C 77.914062 4.359375 78.03125 4.210938 78.109375 4.023438 C 78.171875 3.882812 78.207031 3.726562 78.339844 3.621094 C 78.375 3.59375 78.382812 3.53125 78.394531 3.484375 C 78.511719 3.066406 78.679688 2.671875 78.886719 2.292969 C 78.945312 2.191406 79.007812 2.136719 79.136719 2.167969 C 79.183594 2.179688 79.265625 2.136719 79.300781 2.09375 C 79.351562 2.027344 79.289062 1.980469 79.234375 1.941406 C 79.171875 1.886719 79.1875 1.828125 79.234375 1.773438 C 79.453125 1.503906 79.863281 1.527344 80.019531 1.824219 C 80.113281 2.007812 80.1875 2.207031 80.265625 2.398438 C 80.289062 2.460938 80.328125 2.550781 80.304688 2.585938 C 80.140625 2.804688 80.292969 2.894531 80.4375 3.011719 C 80.503906 3.066406 80.523438 3.171875 80.570312 3.25 C 80.664062 3.40625 80.726562 3.425781 80.894531 3.347656 C 81.425781 3.089844 81.984375 2.910156 82.542969 2.730469 C 82.605469 2.710938 82.679688 2.671875 82.730469 2.6875 C 82.863281 2.738281 82.945312 2.679688 83.035156 2.59375 C 83.136719 2.496094 83.277344 2.5 83.40625 2.519531 C 83.625 2.554688 83.730469 2.710938 83.648438 2.917969 C 83.609375 3.007812 83.605469 3.078125 83.613281 3.171875 C 83.613281 3.21875 83.546875 3.316406 83.515625 3.3125 C 83.40625 3.300781 83.359375 3.316406 83.363281 3.441406 C 83.363281 3.472656 83.296875 3.519531 83.25 3.542969 C 83.1875 3.566406 83.101562 3.558594 83.054688 3.597656 C 83.015625 3.628906 83.039062 3.71875 83.007812 3.769531 C 82.964844 3.84375 82.902344 3.890625 82.820312 3.808594 C 82.800781 3.789062 82.785156 3.765625 82.761719 3.753906 C 82.636719 3.703125 82.5625 3.761719 82.566406 3.96875 Z M 79.917969 4.792969 C 79.90625 4.601562 79.78125 4.503906 79.652344 4.578125 C 79.496094 4.664062 79.332031 4.683594 79.164062 4.710938 C 78.761719 4.777344 78.511719 5.007812 78.398438 5.398438 C 78.378906 5.464844 78.402344 5.496094 78.457031 5.515625 C 78.863281 5.660156 78.863281 5.660156 79.21875 5.394531 C 79.324219 5.316406 79.433594 5.25 79.539062 5.175781 C 79.644531 5.097656 79.75 5.023438 79.84375 4.933594 C 79.882812 4.890625 79.902344 4.824219 79.917969 4.792969 Z M 79.632812 3.628906 C 79.601562 3.5 79.570312 3.359375 79.527344 3.222656 C 79.519531 3.191406 79.484375 3.152344 79.453125 3.144531 C 79.433594 3.140625 79.386719 3.179688 79.375 3.207031 C 79.300781 3.382812 79.230469 3.5625 79.160156 3.746094 C 79.136719 3.804688 79.121094 3.867188 79.105469 3.929688 C 79.101562 3.941406 79.140625 3.976562 79.144531 3.972656 C 79.292969 3.898438 79.441406 3.824219 79.582031 3.742188 C 79.609375 3.726562 79.617188 3.671875 79.632812 3.628906 Z M 78.445312 6.058594 C 78.429688 6.007812 78.425781 5.972656 78.414062 5.964844 C 78.339844 5.914062 78.152344 5.890625 78.128906 5.9375 C 78.074219 6.035156 78.035156 6.140625 77.996094 6.246094 C 77.992188 6.257812 78.058594 6.308594 78.070312 6.300781 C 78.199219 6.222656 78.324219 6.136719 78.445312 6.058594 Z M 76.5 5.4375 C 76.507812 5.328125 76.394531 5.222656 76.277344 5.226562 C 76.1875 5.226562 76.101562 5.308594 76.097656 5.394531 C 76.09375 5.488281 76.183594 5.589844 76.28125 5.597656 C 76.398438 5.613281 76.496094 5.539062 76.5 5.4375 Z M 80.300781 6.03125 C 80.3125 6.027344 80.335938 6.027344 80.335938 6.019531 C 80.375 5.941406 80.441406 5.863281 80.445312 5.785156 C 80.449219 5.699219 80.355469 5.722656 80.292969 5.726562 C 80.265625 5.726562 80.238281 5.730469 80.214844 5.71875 C 80.125 5.675781 80.109375 5.726562 80.097656 5.800781 C 80.070312 5.941406 80.160156 6.046875 80.300781 6.03125 Z M 77.464844 5.433594 C 77.390625 5.394531 77.347656 5.351562 77.308594 5.355469 C 77.242188 5.359375 77.179688 5.398438 77.195312 5.476562 C 77.203125 5.511719 77.273438 5.566406 77.300781 5.558594 C 77.351562 5.546875 77.390625 5.492188 77.464844 5.433594 Z M 82.628906 3.003906 C 82.585938 3.066406 82.539062 3.117188 82.546875 3.140625 C 82.566406 3.1875 82.617188 3.226562 82.65625 3.269531 C 82.695312 3.230469 82.761719 3.1875 82.757812 3.148438 C 82.757812 3.105469 82.6875 3.066406 82.628906 3.003906 Z M 81.039062 4.011719 C 81.082031 3.992188 81.113281 3.988281 81.121094 3.972656 C 81.140625 3.910156 81.140625 3.847656 81.066406 3.816406 C 81.050781 3.808594 81.003906 3.835938 81.003906 3.839844 C 81.011719 3.898438 81.027344 3.949219 81.039062 4.011719 Z M 79.570312 1.847656 C 79.527344 1.898438 79.492188 1.921875 79.484375 1.953125 C 79.472656 2.03125 79.519531 2.078125 79.59375 2.074219 C 79.621094 2.074219 79.675781 2.019531 79.671875 2.007812 C 79.652344 1.957031 79.613281 1.914062 79.570312 1.847656 Z M 81.496094 4.058594 C 81.472656 4.113281 81.4375 4.152344 81.449219 4.171875 C 81.464844 4.207031 81.503906 4.242188 81.542969 4.253906 C 81.5625 4.257812 81.597656 4.21875 81.625 4.203125 C 81.59375 4.171875 81.566406 4.136719 81.496094 4.058594 Z M 79.988281 6.144531 C 80 6.160156 80.007812 6.1875 80.023438 6.195312 C 80.042969 6.199219 80.066406 6.179688 80.089844 6.175781 C 80.070312 6.152344 80.054688 6.125 80.039062 6.101562 C 80.019531 6.113281 80.003906 6.128906 79.988281 6.144531 Z M 79.699219 2.597656 C 79.6875 2.578125 79.679688 2.542969 79.667969 2.539062 C 79.652344 2.535156 79.625 2.554688 79.605469 2.5625 C 79.621094 2.589844 79.636719 2.613281 79.652344 2.640625 C 79.664062 2.625 79.679688 2.613281 79.699219 2.597656 Z M 79.566406 5.339844 C 79.558594 5.320312 79.550781 5.300781 79.542969 5.28125 C 79.523438 5.289062 79.492188 5.296875 79.488281 5.308594 C 79.484375 5.328125 79.503906 5.351562 79.511719 5.375 C 79.527344 5.363281 79.546875 5.351562 79.566406 5.339844 Z M 79.566406 5.339844 " fill-opacity="1" fill-rule="nonzero"/></g><g clip-path="url(#fe29518f1b)"><path fill="#232941" d="M 70.179688 11.632812 C 70.191406 11.628906 70.15625 11.648438 70.140625 11.636719 C 70.121094 11.617188 70.089844 11.566406 70.097656 11.554688 C 70.171875 11.449219 70.246094 11.339844 70.335938 11.25 C 70.40625 11.179688 70.417969 11.117188 70.378906 11.042969 C 70.234375 10.753906 70.242188 10.460938 70.34375 10.164062 C 70.359375 10.117188 70.371094 10.0625 70.371094 10.011719 C 70.375 9.914062 70.34375 9.824219 70.234375 9.804688 C 70.054688 9.773438 69.875 9.75 69.695312 9.734375 C 69.476562 9.710938 69.253906 9.75 69.039062 9.652344 C 68.792969 9.539062 68.71875 9.257812 68.914062 9.054688 C 69.089844 8.867188 69.3125 8.757812 69.558594 8.695312 C 69.886719 8.617188 70.222656 8.542969 70.5625 8.558594 C 70.738281 8.566406 70.824219 8.488281 70.890625 8.339844 C 70.96875 8.164062 70.976562 7.957031 71.121094 7.804688 C 71.140625 7.785156 71.121094 7.734375 71.121094 7.699219 C 71.117188 7.648438 71.097656 7.589844 71.117188 7.550781 C 71.261719 7.25 71.421875 6.953125 71.570312 6.652344 C 71.632812 6.527344 71.738281 6.433594 71.722656 6.265625 C 71.710938 6.164062 71.792969 6.042969 71.855469 5.945312 C 71.964844 5.773438 72.128906 5.703125 72.328125 5.746094 C 72.507812 5.78125 72.652344 5.898438 72.683594 6.0625 C 72.726562 6.300781 72.886719 6.515625 72.839844 6.773438 C 73 7.039062 72.957031 7.359375 73.070312 7.632812 C 73.1875 7.921875 73.273438 8.214844 73.367188 8.511719 C 73.386719 8.566406 73.441406 8.617188 73.492188 8.65625 C 73.578125 8.71875 73.761719 8.730469 73.953125 8.707031 C 73.976562 8.707031 74.003906 8.707031 74.03125 8.710938 C 74.34375 8.722656 74.65625 8.753906 74.96875 8.738281 C 75.175781 8.730469 75.308594 8.84375 75.453125 8.9375 C 75.585938 9.023438 75.578125 9.273438 75.453125 9.394531 C 75.359375 9.488281 75.261719 9.574219 75.113281 9.566406 C 75.078125 9.566406 75.035156 9.5625 75 9.578125 C 74.863281 9.644531 74.722656 9.78125 74.59375 9.773438 C 74.414062 9.757812 74.316406 9.890625 74.175781 9.925781 C 73.964844 9.984375 73.957031 10.054688 74.015625 10.28125 C 74.054688 10.421875 74.085938 10.558594 74.121094 10.699219 C 74.21875 11.117188 74.417969 11.5 74.566406 11.902344 C 74.628906 12.074219 74.71875 12.238281 74.617188 12.425781 C 74.601562 12.457031 74.597656 12.503906 74.605469 12.539062 C 74.632812 12.625 74.683594 12.738281 74.554688 12.761719 C 74.421875 12.789062 74.222656 12.863281 74.171875 12.691406 C 74.105469 12.472656 73.929688 12.367188 73.804688 12.21875 C 73.574219 11.953125 73.316406 11.710938 73.074219 11.457031 C 72.851562 11.226562 72.605469 11.03125 72.335938 10.859375 C 72.222656 10.785156 72.113281 10.789062 72.003906 10.847656 C 71.957031 10.871094 71.921875 10.910156 71.882812 10.945312 C 71.800781 11.015625 71.738281 11.011719 71.648438 10.933594 C 71.519531 10.820312 71.394531 10.851562 71.398438 10.992188 C 71.40625 11.183594 71.300781 11.261719 71.164062 11.308594 C 70.851562 11.417969 70.566406 11.625 70.179688 11.632812 Z M 72.347656 9.417969 C 72.148438 9.410156 71.980469 9.394531 71.8125 9.394531 C 71.597656 9.398438 71.46875 9.617188 71.566406 9.8125 C 71.675781 10.035156 72.015625 10.144531 72.238281 10.035156 C 72.363281 9.96875 72.496094 9.917969 72.625 9.851562 C 72.726562 9.800781 72.832031 9.742188 72.925781 9.675781 C 73.011719 9.617188 72.996094 9.464844 72.898438 9.421875 C 72.84375 9.398438 72.773438 9.390625 72.710938 9.390625 C 72.578125 9.394531 72.449219 9.410156 72.347656 9.417969 Z M 72.660156 8.316406 C 72.640625 8.257812 72.605469 8.148438 72.574219 8.035156 C 72.546875 7.9375 72.476562 7.824219 72.503906 7.742188 C 72.554688 7.589844 72.429688 7.535156 72.390625 7.433594 C 72.382812 7.40625 72.332031 7.378906 72.304688 7.378906 C 72.273438 7.382812 72.234375 7.421875 72.226562 7.449219 C 72.152344 7.6875 72.085938 7.925781 72.015625 8.164062 C 71.90625 8.535156 71.90625 8.53125 72.277344 8.589844 C 72.339844 8.597656 72.402344 8.625 72.46875 8.632812 C 72.578125 8.652344 72.648438 8.597656 72.65625 8.492188 C 72.660156 8.453125 72.660156 8.414062 72.660156 8.316406 Z M 73.5625 11.234375 C 73.546875 11.148438 73.53125 11.074219 73.515625 10.996094 C 73.488281 10.863281 73.410156 10.753906 73.4375 10.589844 C 73.46875 10.410156 73.238281 10.285156 73.054688 10.339844 C 72.972656 10.363281 72.882812 10.429688 72.804688 10.414062 C 72.695312 10.394531 72.671875 10.433594 72.648438 10.515625 C 72.621094 10.605469 72.589844 10.6875 72.6875 10.757812 C 72.925781 10.933594 73.164062 11.113281 73.402344 11.285156 C 73.433594 11.308594 73.476562 11.324219 73.507812 11.316406 C 73.53125 11.308594 73.546875 11.261719 73.5625 11.234375 Z M 71.511719 10.351562 C 71.484375 10.335938 71.441406 10.292969 71.402344 10.292969 C 71.300781 10.292969 71.289062 10.378906 71.285156 10.453125 C 71.285156 10.484375 71.3125 10.53125 71.335938 10.539062 C 71.40625 10.550781 71.511719 10.449219 71.511719 10.351562 Z M 73.292969 9.890625 C 73.269531 9.925781 73.246094 9.960938 73.21875 9.996094 C 73.238281 10.011719 73.269531 10.039062 73.277344 10.035156 C 73.3125 10.007812 73.34375 9.972656 73.378906 9.9375 C 73.359375 9.929688 73.335938 9.914062 73.292969 9.890625 Z M 73.292969 9.890625 " fill-opacity="1" fill-rule="nonzero"/></g><g clip-path="url(#04428ae24a)"><path fill="#232941" d="M 9.886719 56.113281 C 9.921875 55.808594 9.949219 55.558594 10.035156 55.316406 C 10.109375 55.097656 10.132812 54.859375 10.171875 54.628906 C 10.183594 54.578125 10.148438 54.542969 10.09375 54.539062 C 10.015625 54.535156 9.933594 54.527344 9.851562 54.535156 C 9.753906 54.542969 9.65625 54.566406 9.558594 54.582031 C 9.34375 54.617188 9.167969 54.535156 9.019531 54.386719 C 8.921875 54.285156 8.9375 54.144531 8.976562 54.03125 C 9.015625 53.929688 9.082031 53.832031 9.160156 53.761719 C 9.425781 53.523438 9.714844 53.304688 9.972656 53.054688 C 10.132812 52.90625 10.320312 52.796875 10.476562 52.648438 C 10.570312 52.558594 10.644531 52.480469 10.636719 52.328125 C 10.632812 52.1875 10.671875 52.042969 10.71875 51.910156 C 10.820312 51.632812 10.824219 51.324219 10.992188 51.070312 C 11.023438 51.027344 11.023438 50.96875 11.039062 50.917969 C 11.058594 50.839844 11.089844 50.761719 11.101562 50.683594 C 11.121094 50.496094 11.25 50.460938 11.40625 50.449219 C 11.570312 50.433594 11.671875 50.5 11.746094 50.648438 C 11.839844 50.828125 11.910156 51.007812 11.9375 51.207031 C 11.953125 51.324219 11.996094 51.433594 12.039062 51.542969 C 12.082031 51.652344 12.179688 51.691406 12.28125 51.640625 C 12.515625 51.519531 12.746094 51.398438 12.976562 51.273438 C 13 51.261719 13.019531 51.234375 13.046875 51.230469 C 13.355469 51.179688 13.628906 50.988281 13.949219 50.96875 C 14.0625 50.960938 14.179688 50.957031 14.296875 50.96875 C 14.421875 50.980469 14.5625 51.175781 14.574219 51.332031 C 14.578125 51.425781 14.566406 51.511719 14.507812 51.589844 C 14.300781 51.871094 14.132812 52.183594 13.878906 52.433594 C 13.644531 52.660156 13.4375 52.910156 13.1875 53.117188 C 13.074219 53.214844 12.992188 53.351562 12.910156 53.480469 C 12.882812 53.519531 12.878906 53.585938 12.890625 53.632812 C 12.910156 53.722656 12.929688 53.8125 12.980469 53.886719 C 13.160156 54.152344 13.238281 54.460938 13.355469 54.753906 C 13.417969 54.914062 13.386719 55.074219 13.367188 55.234375 C 13.351562 55.332031 13.28125 55.394531 13.199219 55.4375 C 13.113281 55.480469 13.042969 55.460938 12.949219 55.417969 C 12.785156 55.34375 12.625 55.257812 12.492188 55.140625 C 12.332031 55.003906 12.136719 54.933594 11.96875 54.8125 C 11.894531 54.757812 11.707031 54.78125 11.644531 54.851562 C 11.519531 54.992188 11.351562 55.089844 11.265625 55.269531 C 11.226562 55.355469 11.148438 55.421875 11.078125 55.496094 C 10.847656 55.734375 10.722656 56.035156 10.59375 56.328125 C 10.539062 56.453125 10.417969 56.46875 10.324219 56.53125 C 10.238281 56.589844 10.148438 56.53125 10.070312 56.484375 C 10.027344 56.460938 9.976562 56.421875 9.960938 56.375 C 9.921875 56.273438 9.902344 56.164062 9.886719 56.113281 Z M 11.367188 54.226562 C 11.414062 54.199219 11.480469 54.171875 11.53125 54.132812 C 11.644531 54.039062 11.746094 53.933594 11.855469 53.839844 C 12.019531 53.699219 12.050781 53.597656 11.976562 53.390625 C 11.890625 53.152344 11.796875 52.917969 11.707031 52.683594 C 11.707031 52.675781 11.703125 52.660156 11.695312 52.660156 C 11.664062 52.648438 11.621094 52.621094 11.605469 52.628906 C 11.421875 52.746094 11.222656 52.851562 11.242188 53.117188 C 11.257812 53.367188 11.199219 53.601562 11.125 53.835938 C 11.109375 53.886719 11.101562 53.941406 11.097656 53.992188 C 11.089844 54.09375 11.121094 54.144531 11.210938 54.183594 C 11.253906 54.199219 11.296875 54.207031 11.367188 54.226562 Z M 13.820312 51.613281 C 13.785156 51.613281 13.761719 51.609375 13.746094 51.613281 C 13.488281 51.710938 13.210938 51.765625 12.972656 51.921875 C 12.878906 51.984375 12.789062 52.050781 12.660156 52.070312 C 12.566406 52.085938 12.480469 52.179688 12.394531 52.246094 C 12.375 52.261719 12.371094 52.3125 12.378906 52.34375 C 12.417969 52.550781 12.488281 52.742188 12.625 52.910156 C 12.660156 52.957031 12.699219 52.949219 12.742188 52.921875 C 12.785156 52.894531 12.828125 52.859375 12.867188 52.820312 C 13.109375 52.566406 13.351562 52.316406 13.585938 52.054688 C 13.683594 51.945312 13.753906 51.820312 13.832031 51.699219 C 13.84375 51.679688 13.824219 51.640625 13.820312 51.613281 Z M 10.132812 54.019531 C 10.199219 54.027344 10.222656 54.011719 10.253906 53.910156 C 10.269531 53.851562 10.285156 53.789062 10.292969 53.726562 C 10.292969 53.707031 10.28125 53.671875 10.265625 53.660156 C 10.246094 53.648438 10.207031 53.648438 10.191406 53.660156 C 10.09375 53.738281 10 53.816406 9.90625 53.898438 C 9.871094 53.929688 9.890625 53.980469 9.949219 53.988281 C 10 54 10.054688 54.007812 10.132812 54.019531 Z M 12.371094 54.480469 C 12.355469 54.421875 12.355469 54.375 12.335938 54.335938 C 12.3125 54.289062 12.265625 54.242188 12.207031 54.261719 C 12.164062 54.28125 12.109375 54.316406 12.089844 54.359375 C 12.058594 54.421875 12.117188 54.453125 12.167969 54.476562 C 12.207031 54.496094 12.25 54.519531 12.289062 54.527344 C 12.316406 54.53125 12.34375 54.5 12.371094 54.480469 Z M 11.035156 54.609375 C 11.007812 54.628906 10.980469 54.648438 10.953125 54.664062 C 10.96875 54.683594 10.992188 54.714844 11 54.710938 C 11.027344 54.699219 11.050781 54.675781 11.078125 54.65625 C 11.066406 54.644531 11.054688 54.632812 11.035156 54.609375 Z M 11.035156 54.609375 " fill-opacity="1" fill-rule="nonzero"/></g><g clip-path="url(#455ce69551)"><path fill="#232941" d="M 18.285156 56.945312 C 18.289062 56.9375 18.285156 56.988281 18.261719 57.007812 C 18.191406 57.0625 18.144531 57.140625 18.042969 57.160156 C 17.980469 57.175781 17.933594 57.242188 17.878906 57.285156 C 17.742188 57.390625 17.605469 57.496094 17.464844 57.59375 C 17.390625 57.640625 17.378906 57.699219 17.398438 57.777344 C 17.433594 57.933594 17.539062 58.050781 17.636719 58.164062 C 17.753906 58.292969 17.820312 58.449219 17.886719 58.605469 C 17.972656 58.800781 17.949219 58.992188 17.800781 59.15625 C 17.714844 59.253906 17.621094 59.300781 17.515625 59.230469 C 17.417969 59.160156 17.304688 59.210938 17.214844 59.140625 C 17.136719 59.082031 17.054688 59.023438 16.976562 58.964844 C 16.765625 58.808594 16.53125 58.695312 16.289062 58.597656 C 16.210938 58.566406 16.148438 58.5625 16.085938 58.613281 C 15.980469 58.699219 15.855469 58.753906 15.761719 58.851562 C 15.6875 58.925781 15.582031 58.96875 15.492188 59.027344 C 15.457031 59.050781 15.417969 59.078125 15.386719 59.105469 C 15.34375 59.136719 15.308594 59.179688 15.261719 59.210938 C 15.023438 59.355469 14.785156 59.5 14.546875 59.640625 C 14.519531 59.660156 14.480469 59.671875 14.445312 59.675781 C 14.386719 59.679688 14.328125 59.664062 14.324219 59.597656 C 14.316406 59.484375 14.289062 59.386719 14.234375 59.289062 C 14.195312 59.222656 14.21875 59.15625 14.242188 59.082031 C 14.328125 58.816406 14.449219 58.566406 14.570312 58.3125 C 14.59375 58.257812 14.566406 58.21875 14.511719 58.230469 C 14.382812 58.257812 14.261719 58.269531 14.148438 58.1875 C 14.132812 58.175781 14.082031 58.195312 14.058594 58.214844 C 13.917969 58.34375 13.746094 58.335938 13.574219 58.316406 C 13.464844 58.304688 13.414062 58.207031 13.371094 58.121094 C 13.359375 58.09375 13.367188 58.039062 13.390625 58.019531 C 13.453125 57.960938 13.496094 57.886719 13.589844 57.847656 C 13.894531 57.722656 14.191406 57.578125 14.492188 57.441406 C 14.523438 57.429688 14.558594 57.429688 14.59375 57.425781 C 14.625 57.421875 14.675781 57.433594 14.6875 57.417969 C 14.742188 57.320312 14.839844 57.289062 14.933594 57.261719 C 15.074219 57.214844 15.15625 57.113281 15.210938 56.984375 C 15.25 56.886719 15.277344 56.78125 15.367188 56.707031 C 15.390625 56.6875 15.398438 56.644531 15.40625 56.613281 C 15.488281 56.324219 15.605469 56.050781 15.746094 55.789062 C 15.785156 55.71875 15.832031 55.683594 15.917969 55.703125 C 15.953125 55.710938 16.007812 55.683594 16.03125 55.652344 C 16.066406 55.605469 16.023438 55.574219 15.988281 55.546875 C 15.941406 55.511719 15.953125 55.46875 15.984375 55.429688 C 16.136719 55.246094 16.421875 55.261719 16.527344 55.46875 C 16.59375 55.59375 16.644531 55.730469 16.699219 55.863281 C 16.714844 55.90625 16.742188 55.96875 16.722656 55.992188 C 16.613281 56.140625 16.71875 56.203125 16.816406 56.285156 C 16.863281 56.324219 16.875 56.394531 16.910156 56.449219 C 16.972656 56.558594 17.015625 56.574219 17.132812 56.519531 C 17.5 56.339844 17.882812 56.214844 18.269531 56.089844 C 18.3125 56.078125 18.363281 56.050781 18.398438 56.0625 C 18.492188 56.097656 18.546875 56.058594 18.609375 56 C 18.679688 55.929688 18.777344 55.933594 18.867188 55.945312 C 19.015625 55.972656 19.089844 56.078125 19.03125 56.21875 C 19.007812 56.28125 19.003906 56.332031 19.007812 56.394531 C 19.011719 56.429688 18.960938 56.496094 18.941406 56.492188 C 18.867188 56.484375 18.832031 56.496094 18.835938 56.582031 C 18.835938 56.605469 18.789062 56.636719 18.757812 56.652344 C 18.714844 56.667969 18.65625 56.664062 18.621094 56.6875 C 18.597656 56.710938 18.609375 56.773438 18.589844 56.808594 C 18.5625 56.859375 18.515625 56.890625 18.460938 56.835938 C 18.449219 56.820312 18.4375 56.804688 18.421875 56.800781 C 18.335938 56.761719 18.285156 56.800781 18.285156 56.945312 Z M 16.457031 57.515625 C 16.449219 57.382812 16.363281 57.316406 16.273438 57.367188 C 16.167969 57.425781 16.054688 57.441406 15.9375 57.460938 C 15.660156 57.503906 15.484375 57.664062 15.410156 57.933594 C 15.394531 57.980469 15.410156 58 15.449219 58.015625 C 15.730469 58.113281 15.730469 58.113281 15.976562 57.929688 C 16.046875 57.878906 16.125 57.832031 16.195312 57.777344 C 16.269531 57.726562 16.339844 57.671875 16.40625 57.613281 C 16.433594 57.582031 16.445312 57.535156 16.457031 57.515625 Z M 16.261719 56.714844 C 16.238281 56.621094 16.21875 56.527344 16.1875 56.433594 C 16.183594 56.410156 16.160156 56.382812 16.136719 56.378906 C 16.125 56.375 16.09375 56.402344 16.085938 56.421875 C 16.03125 56.542969 15.984375 56.667969 15.9375 56.792969 C 15.917969 56.832031 15.90625 56.875 15.898438 56.917969 C 15.894531 56.925781 15.921875 56.953125 15.925781 56.949219 C 16.027344 56.898438 16.128906 56.847656 16.226562 56.789062 C 16.246094 56.777344 16.25 56.742188 16.261719 56.714844 Z M 15.441406 58.390625 C 15.429688 58.351562 15.429688 58.332031 15.417969 58.324219 C 15.367188 58.289062 15.238281 58.273438 15.222656 58.304688 C 15.183594 58.375 15.15625 58.445312 15.132812 58.519531 C 15.128906 58.523438 15.175781 58.5625 15.183594 58.558594 C 15.273438 58.503906 15.359375 58.441406 15.441406 58.390625 Z M 14.097656 57.960938 C 14.101562 57.886719 14.027344 57.8125 13.945312 57.8125 C 13.882812 57.816406 13.824219 57.871094 13.820312 57.929688 C 13.820312 57.996094 13.878906 58.066406 13.949219 58.070312 C 14.027344 58.082031 14.09375 58.03125 14.097656 57.960938 Z M 16.722656 58.371094 C 16.730469 58.367188 16.746094 58.367188 16.746094 58.363281 C 16.773438 58.308594 16.820312 58.253906 16.820312 58.199219 C 16.824219 58.140625 16.757812 58.15625 16.714844 58.160156 C 16.699219 58.160156 16.679688 58.160156 16.664062 58.152344 C 16.601562 58.125 16.589844 58.160156 16.582031 58.210938 C 16.5625 58.308594 16.625 58.378906 16.722656 58.371094 Z M 14.765625 57.957031 C 14.714844 57.929688 14.683594 57.902344 14.65625 57.902344 C 14.609375 57.90625 14.566406 57.933594 14.578125 57.988281 C 14.585938 58.011719 14.632812 58.050781 14.652344 58.042969 C 14.683594 58.035156 14.714844 58 14.765625 57.957031 Z M 18.328125 56.28125 C 18.300781 56.324219 18.265625 56.359375 18.273438 56.375 C 18.285156 56.410156 18.320312 56.433594 18.347656 56.464844 C 18.375 56.4375 18.417969 56.40625 18.417969 56.378906 C 18.417969 56.351562 18.371094 56.324219 18.328125 56.28125 Z M 17.230469 56.976562 C 17.261719 56.960938 17.285156 56.957031 17.289062 56.949219 C 17.300781 56.90625 17.300781 56.863281 17.25 56.839844 C 17.238281 56.835938 17.207031 56.851562 17.207031 56.859375 C 17.210938 56.898438 17.222656 56.933594 17.230469 56.976562 Z M 16.21875 55.484375 C 16.1875 55.515625 16.164062 55.535156 16.160156 55.554688 C 16.148438 55.609375 16.183594 55.640625 16.234375 55.636719 C 16.253906 55.636719 16.292969 55.601562 16.289062 55.59375 C 16.273438 55.558594 16.25 55.527344 16.21875 55.484375 Z M 17.546875 57.007812 C 17.53125 57.046875 17.507812 57.074219 17.515625 57.089844 C 17.527344 57.113281 17.554688 57.132812 17.578125 57.140625 C 17.59375 57.148438 17.617188 57.121094 17.636719 57.109375 C 17.617188 57.085938 17.59375 57.0625 17.546875 57.007812 Z M 16.507812 58.449219 C 16.515625 58.460938 16.519531 58.480469 16.53125 58.480469 C 16.542969 58.484375 16.5625 58.472656 16.574219 58.46875 C 16.5625 58.453125 16.554688 58.433594 16.542969 58.417969 C 16.527344 58.425781 16.519531 58.4375 16.507812 58.449219 Z M 16.304688 56 C 16.300781 55.984375 16.292969 55.960938 16.285156 55.960938 C 16.273438 55.957031 16.257812 55.96875 16.242188 55.976562 C 16.253906 55.992188 16.261719 56.011719 16.273438 56.027344 C 16.285156 56.019531 16.292969 56.007812 16.304688 56 Z M 16.214844 57.894531 C 16.210938 57.878906 16.207031 57.867188 16.199219 57.851562 C 16.1875 57.859375 16.164062 57.863281 16.160156 57.871094 C 16.160156 57.882812 16.171875 57.902344 16.175781 57.917969 C 16.1875 57.910156 16.203125 57.902344 16.214844 57.894531 Z M 16.214844 57.894531 " fill-opacity="1" fill-rule="nonzero"/></g><g clip-path="url(#874682d7c1)"><path fill="#232941" d="M 9.734375 62.234375 C 9.742188 62.234375 9.71875 62.246094 9.710938 62.238281 C 9.695312 62.226562 9.671875 62.191406 9.679688 62.183594 C 9.730469 62.109375 9.78125 62.035156 9.84375 61.972656 C 9.894531 61.925781 9.902344 61.878906 9.875 61.828125 C 9.773438 61.628906 9.78125 61.429688 9.847656 61.222656 C 9.859375 61.191406 9.867188 61.152344 9.871094 61.117188 C 9.871094 61.050781 9.851562 60.988281 9.773438 60.976562 C 9.648438 60.953125 9.527344 60.9375 9.402344 60.925781 C 9.25 60.910156 9.097656 60.9375 8.949219 60.871094 C 8.777344 60.792969 8.730469 60.597656 8.863281 60.457031 C 8.984375 60.328125 9.136719 60.25 9.308594 60.210938 C 9.535156 60.152344 9.765625 60.105469 10 60.113281 C 10.121094 60.121094 10.183594 60.066406 10.226562 59.964844 C 10.28125 59.839844 10.289062 59.699219 10.386719 59.59375 C 10.398438 59.582031 10.386719 59.546875 10.386719 59.519531 C 10.382812 59.488281 10.371094 59.445312 10.382812 59.421875 C 10.484375 59.210938 10.59375 59.007812 10.695312 58.796875 C 10.738281 58.710938 10.8125 58.648438 10.800781 58.53125 C 10.792969 58.460938 10.851562 58.378906 10.894531 58.3125 C 10.96875 58.191406 11.082031 58.144531 11.21875 58.171875 C 11.34375 58.199219 11.445312 58.277344 11.464844 58.390625 C 11.492188 58.558594 11.605469 58.703125 11.574219 58.882812 C 11.683594 59.066406 11.652344 59.285156 11.730469 59.472656 C 11.8125 59.675781 11.871094 59.878906 11.9375 60.082031 C 11.949219 60.121094 11.988281 60.15625 12.023438 60.179688 C 12.082031 60.222656 12.207031 60.234375 12.339844 60.21875 C 12.359375 60.214844 12.375 60.21875 12.394531 60.21875 C 12.609375 60.226562 12.828125 60.25 13.042969 60.238281 C 13.183594 60.230469 13.277344 60.3125 13.375 60.375 C 13.46875 60.4375 13.460938 60.605469 13.375 60.691406 C 13.3125 60.753906 13.242188 60.816406 13.144531 60.8125 C 13.117188 60.808594 13.085938 60.808594 13.0625 60.820312 C 12.96875 60.863281 12.871094 60.957031 12.78125 60.953125 C 12.65625 60.941406 12.59375 61.03125 12.492188 61.058594 C 12.347656 61.097656 12.34375 61.144531 12.386719 61.304688 C 12.410156 61.398438 12.433594 61.496094 12.457031 61.589844 C 12.523438 61.878906 12.664062 62.144531 12.761719 62.421875 C 12.808594 62.542969 12.867188 62.652344 12.800781 62.785156 C 12.789062 62.804688 12.785156 62.835938 12.792969 62.859375 C 12.808594 62.921875 12.84375 63 12.757812 63.015625 C 12.664062 63.035156 12.527344 63.085938 12.492188 62.96875 C 12.445312 62.816406 12.324219 62.746094 12.238281 62.640625 C 12.078125 62.457031 11.902344 62.292969 11.734375 62.117188 C 11.582031 61.957031 11.410156 61.820312 11.222656 61.703125 C 11.144531 61.652344 11.070312 61.65625 10.996094 61.695312 C 10.964844 61.710938 10.9375 61.738281 10.910156 61.761719 C 10.855469 61.808594 10.8125 61.804688 10.75 61.753906 C 10.660156 61.675781 10.574219 61.699219 10.578125 61.792969 C 10.582031 61.925781 10.507812 61.980469 10.417969 62.011719 C 10.199219 62.089844 10.003906 62.230469 9.734375 62.234375 Z M 11.234375 60.707031 C 11.097656 60.703125 10.980469 60.691406 10.863281 60.691406 C 10.714844 60.691406 10.628906 60.84375 10.695312 60.980469 C 10.769531 61.132812 11.003906 61.210938 11.15625 61.132812 C 11.242188 61.089844 11.335938 61.050781 11.421875 61.007812 C 11.492188 60.972656 11.566406 60.933594 11.632812 60.886719 C 11.691406 60.84375 11.679688 60.738281 11.613281 60.710938 C 11.574219 60.691406 11.527344 60.6875 11.484375 60.6875 C 11.390625 60.691406 11.304688 60.703125 11.234375 60.707031 Z M 11.445312 59.945312 C 11.433594 59.90625 11.410156 59.832031 11.390625 59.753906 C 11.371094 59.6875 11.324219 59.605469 11.339844 59.550781 C 11.375 59.445312 11.289062 59.40625 11.261719 59.335938 C 11.257812 59.320312 11.222656 59.300781 11.203125 59.300781 C 11.183594 59.300781 11.152344 59.328125 11.148438 59.347656 C 11.097656 59.511719 11.050781 59.675781 11.003906 59.84375 C 10.929688 60.097656 10.929688 60.097656 11.183594 60.136719 C 11.226562 60.140625 11.269531 60.160156 11.316406 60.167969 C 11.390625 60.179688 11.441406 60.140625 11.445312 60.070312 C 11.449219 60.042969 11.445312 60.015625 11.445312 59.945312 Z M 12.070312 61.960938 C 12.0625 61.902344 12.050781 61.851562 12.039062 61.796875 C 12.019531 61.703125 11.964844 61.632812 11.984375 61.515625 C 12.007812 61.394531 11.847656 61.304688 11.722656 61.34375 C 11.664062 61.363281 11.601562 61.40625 11.546875 61.394531 C 11.472656 61.382812 11.457031 61.40625 11.441406 61.464844 C 11.421875 61.527344 11.398438 61.585938 11.464844 61.632812 C 11.632812 61.753906 11.796875 61.875 11.960938 61.996094 C 11.980469 62.011719 12.011719 62.023438 12.03125 62.019531 C 12.050781 62.011719 12.058594 61.980469 12.070312 61.960938 Z M 10.65625 61.351562 C 10.636719 61.339844 10.609375 61.3125 10.578125 61.3125 C 10.511719 61.3125 10.5 61.371094 10.5 61.421875 C 10.496094 61.441406 10.519531 61.476562 10.535156 61.480469 C 10.582031 61.492188 10.65625 61.417969 10.65625 61.351562 Z M 11.886719 61.035156 C 11.871094 61.058594 11.851562 61.082031 11.835938 61.109375 C 11.847656 61.117188 11.867188 61.136719 11.875 61.132812 C 11.898438 61.113281 11.921875 61.089844 11.945312 61.066406 C 11.929688 61.058594 11.914062 61.050781 11.886719 61.035156 Z M 11.886719 61.035156 " fill-opacity="1" fill-rule="nonzero"/></g><g clip-path="url(#b8141cd786)"><g clip-path="url(#d5dccb9e7f)"><g clip-path="url(#2999af7d73)"><path fill="#fb6d4d" d="M 201.746094 11.214844 C 201.699219 10.914062 201.59375 10.613281 201.503906 10.335938 C 201.359375 9.875 201.175781 9.417969 200.8125 9.089844 C 200.6875 8.976562 200.460938 8.96875 200.324219 9.070312 C 199.609375 9.625 199.339844 10.691406 199.296875 11.570312 C 198.578125 11.871094 197.800781 12.164062 197.582031 12.996094 C 197.542969 13.152344 197.65625 13.292969 197.78125 13.363281 C 198.316406 13.667969 198.988281 13.765625 199.617188 13.863281 C 199.566406 14.003906 199.582031 14.160156 199.570312 14.320312 C 199.550781 14.535156 199.523438 14.746094 199.515625 14.964844 C 199.496094 15.390625 199.515625 15.816406 199.742188 16.1875 C 199.792969 16.269531 199.910156 16.316406 200.007812 16.304688 C 200.5 16.246094 200.902344 15.953125 201.25 15.613281 C 201.527344 15.34375 201.828125 15.039062 201.996094 14.679688 C 202.199219 14.917969 202.5 15.085938 202.769531 15.226562 C 203.101562 15.402344 203.484375 15.527344 203.863281 15.507812 C 203.984375 15.496094 204.128906 15.378906 204.136719 15.25 C 204.167969 14.417969 203.976562 13.441406 203.476562 12.761719 C 203.703125 12.582031 203.914062 12.292969 204.050781 12.097656 C 204.285156 11.746094 204.457031 11.386719 204.4375 10.957031 C 204.433594 10.804688 204.285156 10.652344 204.136719 10.632812 C 203.648438 10.582031 203.179688 10.6875 202.71875 10.847656 C 202.429688 10.945312 202.054688 11.054688 201.746094 11.214844 Z M 202.777344 11.601562 C 203.070312 11.496094 203.371094 11.390625 203.679688 11.355469 C 203.613281 11.574219 203.472656 11.773438 203.367188 11.972656 C 203.261719 12.164062 203.089844 12.410156 203.054688 12.644531 C 202.894531 12.726562 202.792969 12.925781 202.925781 13.125 C 203.265625 13.617188 203.464844 14.273438 203.519531 14.886719 C 203.035156 14.824219 202.523438 14.515625 202.121094 14.308594 C 202.039062 14.265625 201.96875 14.296875 201.925781 14.355469 C 201.261719 14.621094 200.914062 15.4375 200.230469 15.675781 C 200.210938 15.375 200.222656 15.085938 200.257812 14.773438 C 200.300781 14.398438 200.433594 13.960938 200.152344 13.664062 C 200.121094 13.628906 200.078125 13.605469 200.035156 13.597656 C 199.714844 13.183594 198.929688 13.105469 198.410156 12.910156 C 198.726562 12.570312 199.320312 12.492188 199.714844 12.289062 C 199.878906 12.203125 199.953125 12.054688 199.957031 11.90625 C 199.964844 11.890625 199.972656 11.878906 199.980469 11.863281 C 200.257812 11.285156 200.179688 10.523438 200.542969 9.992188 C 200.699219 10.234375 200.796875 10.515625 200.890625 10.785156 C 201.007812 11.132812 201.101562 11.527344 201.390625 11.773438 C 201.4375 11.863281 201.515625 11.925781 201.609375 11.9375 C 201.988281 11.984375 202.425781 11.730469 202.777344 11.601562 Z M 202.777344 11.601562 " fill-opacity="1" fill-rule="nonzero"/></g></g></g><g clip-path="url(#7b5370c0c6)"><g clip-path="url(#84ccb3f9fa)"><g clip-path="url(#001411dd5d)"><path fill="#fb6d4d" d="M 207.363281 8.265625 C 207.207031 8.394531 207.058594 8.523438 206.886719 8.640625 C 206.667969 8.789062 206.519531 8.972656 206.414062 9.210938 C 206.367188 9.316406 206.417969 9.410156 206.511719 9.46875 C 206.691406 9.582031 206.859375 9.664062 207.066406 9.722656 C 207.277344 9.78125 207.5625 9.785156 207.75 9.914062 C 207.9375 10.042969 207.972656 10.332031 208.074219 10.53125 C 208.238281 10.855469 208.621094 11.230469 208.875 10.878906 C 209.101562 10.675781 209.191406 10.335938 209.46875 10.179688 C 209.804688 9.992188 210.226562 10.0625 210.566406 9.875 C 211.179688 9.53125 210.710938 8.792969 210.320312 8.382812 C 210.46875 7.941406 210.707031 7.511719 210.746094 7.042969 C 210.757812 6.890625 210.671875 6.769531 210.519531 6.730469 C 210.15625 6.648438 209.824219 6.773438 209.527344 6.976562 C 209.398438 7.066406 209.277344 7.167969 209.140625 7.242188 C 209.089844 7.273438 209.039062 7.292969 208.988281 7.320312 C 208.824219 6.761719 208.25 5.953125 207.691406 6.359375 C 207.402344 6.566406 207.355469 7.007812 207.332031 7.328125 C 207.3125 7.625 207.269531 7.972656 207.363281 8.265625 Z M 208.113281 6.910156 C 208.230469 7.003906 208.324219 7.140625 208.417969 7.257812 C 208.53125 7.402344 208.625 7.535156 208.769531 7.613281 C 208.777344 7.640625 208.785156 7.660156 208.800781 7.679688 C 209.007812 7.949219 209.378906 7.730469 209.597656 7.589844 C 209.777344 7.476562 209.949219 7.335938 210.148438 7.28125 C 210.058594 7.585938 209.90625 7.882812 209.898438 8.195312 C 209.785156 8.25 209.707031 8.386719 209.757812 8.523438 C 209.820312 8.707031 209.933594 8.855469 210.050781 9.007812 C 210.128906 9.109375 210.28125 9.253906 210.308594 9.382812 C 210.308594 9.390625 210.3125 9.394531 210.3125 9.398438 C 210.304688 9.402344 210.289062 9.40625 210.273438 9.414062 C 210.1875 9.453125 210.097656 9.472656 210.007812 9.492188 C 209.835938 9.535156 209.65625 9.554688 209.492188 9.621094 C 209.074219 9.785156 208.816406 10.261719 208.78125 10.703125 C 208.589844 10.765625 208.542969 10.515625 208.484375 10.347656 C 208.421875 10.152344 208.367188 9.953125 208.277344 9.773438 C 208.003906 9.253906 207.351562 9.332031 206.855469 9.1875 C 207.105469 8.851562 207.628906 8.886719 207.886719 8.542969 C 207.953125 8.457031 207.957031 8.355469 207.921875 8.269531 C 207.976562 8.074219 207.9375 7.855469 207.929688 7.652344 C 207.925781 7.382812 207.9375 7.113281 208.015625 6.851562 C 208.019531 6.847656 208.019531 6.84375 208.023438 6.839844 C 208.058594 6.859375 208.085938 6.882812 208.113281 6.910156 Z M 208.03125 6.824219 C 208.039062 6.808594 208.042969 6.816406 208.03125 6.824219 Z M 208.03125 6.824219 " fill-opacity="1" fill-rule="nonzero"/></g></g></g><g clip-path="url(#31ed69c7b4)"><g clip-path="url(#eb015c4e54)"><g clip-path="url(#5dcecabd54)"><path fill="#fb6d4d" d="M 200.257812 5.882812 C 200.328125 6.164062 200.734375 6.324219 200.964844 6.445312 C 201.183594 6.554688 201.519531 6.785156 201.792969 6.792969 C 201.660156 7.214844 201.574219 7.664062 201.980469 7.980469 C 202.402344 8.3125 202.773438 7.832031 203.070312 7.578125 C 203.121094 7.53125 203.164062 7.476562 203.195312 7.414062 C 203.339844 7.398438 203.464844 7.488281 203.628906 7.585938 C 203.917969 7.765625 204.390625 7.921875 204.703125 7.703125 C 204.992188 7.507812 204.949219 7.125 204.871094 6.832031 C 204.820312 6.652344 204.746094 6.472656 204.675781 6.300781 C 204.625 6.1875 204.578125 6.023438 204.496094 5.910156 C 204.902344 5.523438 205.472656 4.871094 204.957031 4.445312 C 204.695312 4.230469 204.289062 4.339844 204 4.441406 C 203.867188 4.488281 203.652344 4.574219 203.480469 4.695312 C 203.359375 4.128906 203.101562 3.492188 202.550781 3.304688 C 202.417969 3.261719 202.289062 3.28125 202.195312 3.386719 C 201.871094 3.75 201.503906 4.441406 201.625 4.949219 C 201.625 4.949219 201.625 4.949219 201.625 4.953125 C 201.03125 4.984375 200.089844 5.246094 200.257812 5.882812 Z M 204.351562 7.242188 C 204.347656 7.25 204.347656 7.25 204.351562 7.242188 Z M 201.191406 5.472656 C 201.441406 5.375 201.6875 5.296875 201.929688 5.179688 C 201.9375 5.175781 201.941406 5.171875 201.945312 5.171875 C 202.015625 5.152344 202.078125 5.105469 202.125 5.027344 C 202.238281 4.835938 202.242188 4.605469 202.308594 4.394531 C 202.359375 4.242188 202.421875 4.101562 202.503906 3.972656 C 202.839844 4.257812 202.855469 4.851562 203.226562 5.136719 C 203.238281 5.183594 203.273438 5.226562 203.324219 5.253906 C 203.527344 5.351562 203.753906 5.207031 203.949219 5.144531 C 204.082031 5.097656 204.210938 5.046875 204.34375 5 C 204.398438 4.984375 204.472656 4.980469 204.53125 4.96875 C 204.53125 4.976562 204.53125 4.980469 204.527344 4.988281 C 204.472656 5.101562 204.414062 5.207031 204.351562 5.320312 C 204.261719 5.476562 204.15625 5.628906 204.101562 5.800781 C 204.074219 5.816406 204.050781 5.835938 204.027344 5.863281 C 203.90625 6.019531 203.992188 6.203125 204.0625 6.355469 C 204.140625 6.535156 204.21875 6.710938 204.28125 6.894531 C 204.3125 6.992188 204.332031 7.082031 204.351562 7.175781 C 204.359375 7.214844 204.359375 7.238281 204.351562 7.246094 C 204.171875 7.351562 203.832031 7.09375 203.683594 7.015625 C 203.5 6.917969 203.328125 6.875 203.121094 6.925781 C 203.050781 6.945312 202.980469 6.980469 202.917969 7.015625 C 202.710938 7.027344 202.53125 7.21875 202.390625 7.351562 C 202.375 7.367188 202.347656 7.390625 202.320312 7.410156 C 202.300781 7.378906 202.269531 7.34375 202.253906 7.3125 C 202.140625 7.09375 202.128906 6.851562 202.054688 6.617188 C 202.0625 6.550781 202.054688 6.480469 202.019531 6.425781 C 201.917969 6.265625 201.609375 6.203125 201.441406 6.128906 C 201.226562 6.035156 200.902344 5.9375 200.734375 5.765625 C 200.730469 5.757812 200.722656 5.753906 200.71875 5.75 C 200.730469 5.722656 200.757812 5.699219 200.777344 5.6875 C 200.910156 5.59375 201.039062 5.53125 201.191406 5.472656 Z M 201.191406 5.472656 " fill-opacity="1" fill-rule="nonzero"/></g></g></g><g clip-path="url(#e9ee2546e6)"><g clip-path="url(#c3e342429e)"><g clip-path="url(#7cf02488df)"><path fill="#232941" d="M 77.59375 61.539062 C 77.394531 61.597656 77.199219 61.691406 77.019531 61.777344 C 76.722656 61.910156 76.425781 62.070312 76.234375 62.34375 C 76.167969 62.4375 76.183594 62.59375 76.261719 62.675781 C 76.695312 63.113281 77.4375 63.207031 78.03125 63.164062 C 78.296875 63.621094 78.558594 64.125 79.136719 64.203125 C 79.242188 64.214844 79.328125 64.125 79.367188 64.039062 C 79.527344 63.652344 79.539062 63.191406 79.554688 62.757812 C 79.652344 62.78125 79.757812 62.757812 79.863281 62.753906 C 80.011719 62.746094 80.15625 62.746094 80.304688 62.738281 C 80.59375 62.714844 80.878906 62.667969 81.109375 62.480469 C 81.164062 62.441406 81.183594 62.359375 81.167969 62.296875 C 81.085938 61.96875 80.855469 61.71875 80.601562 61.515625 C 80.394531 61.347656 80.164062 61.167969 79.910156 61.085938 C 80.054688 60.929688 80.140625 60.710938 80.214844 60.519531 C 80.304688 60.28125 80.359375 60.011719 80.3125 59.757812 C 80.296875 59.679688 80.203125 59.589844 80.117188 59.597656 C 79.554688 59.644531 78.910156 59.851562 78.492188 60.246094 C 78.351562 60.109375 78.140625 59.988281 77.996094 59.914062 C 77.742188 59.78125 77.484375 59.699219 77.195312 59.746094 C 77.09375 59.761719 77.003906 59.875 77.003906 59.976562 C 77.011719 60.308594 77.121094 60.617188 77.265625 60.914062 C 77.355469 61.101562 77.460938 61.347656 77.59375 61.539062 Z M 77.769531 60.8125 C 77.671875 60.625 77.578125 60.429688 77.527344 60.222656 C 77.679688 60.253906 77.828125 60.332031 77.96875 60.386719 C 78.109375 60.441406 78.289062 60.535156 78.449219 60.539062 C 78.519531 60.640625 78.660156 60.695312 78.78125 60.585938 C 79.089844 60.316406 79.511719 60.128906 79.925781 60.042969 C 79.921875 60.375 79.753906 60.742188 79.648438 61.035156 C 79.625 61.089844 79.652344 61.136719 79.695312 61.160156 C 79.929688 61.589844 80.507812 61.753906 80.722656 62.195312 C 80.523438 62.234375 80.328125 62.25 80.113281 62.25 C 79.859375 62.253906 79.550781 62.199219 79.375 62.414062 C 79.351562 62.4375 79.34375 62.46875 79.339844 62.5 C 79.085938 62.746094 79.097656 63.285156 79.011719 63.652344 C 78.753906 63.464844 78.652344 63.070312 78.484375 62.820312 C 78.414062 62.71875 78.304688 62.679688 78.207031 62.691406 C 78.195312 62.683594 78.183594 62.679688 78.171875 62.675781 C 77.761719 62.535156 77.253906 62.652344 76.867188 62.453125 C 77.015625 62.328125 77.199219 62.238281 77.375 62.152344 C 77.597656 62.042969 77.855469 61.949219 78 61.734375 C 78.054688 61.695312 78.089844 61.636719 78.089844 61.570312 C 78.09375 61.3125 77.886719 61.039062 77.769531 60.8125 Z M 77.769531 60.8125 " fill-opacity="1" fill-rule="nonzero"/></g></g></g><g clip-path="url(#1af04d5b74)"><g clip-path="url(#2ba300910d)"><g clip-path="url(#8cc2df71f6)"><path fill="#232941" d="M 75.140625 57.996094 C 75.242188 58.089844 75.34375 58.179688 75.433594 58.285156 C 75.550781 58.417969 75.6875 58.507812 75.859375 58.558594 C 75.933594 58.578125 75.992188 58.539062 76.023438 58.472656 C 76.085938 58.339844 76.128906 58.21875 76.148438 58.074219 C 76.171875 57.925781 76.152344 57.734375 76.222656 57.597656 C 76.292969 57.460938 76.488281 57.414062 76.613281 57.328125 C 76.816406 57.191406 77.039062 56.902344 76.78125 56.757812 C 76.625 56.621094 76.390625 56.589844 76.261719 56.417969 C 76.105469 56.207031 76.121094 55.914062 75.964844 55.703125 C 75.683594 55.316406 75.222656 55.695312 74.980469 55.992188 C 74.667969 55.925781 74.359375 55.800781 74.042969 55.8125 C 73.933594 55.816406 73.863281 55.886719 73.847656 55.992188 C 73.824219 56.242188 73.933594 56.457031 74.097656 56.640625 C 74.167969 56.722656 74.242188 56.792969 74.308594 56.878906 C 74.332031 56.910156 74.351562 56.945312 74.371094 56.976562 C 74.007812 57.132812 73.511719 57.585938 73.828125 57.929688 C 73.992188 58.109375 74.292969 58.101562 74.515625 58.089844 C 74.714844 58.082031 74.953125 58.082031 75.140625 57.996094 Z M 74.167969 57.597656 C 74.222656 57.511719 74.304688 57.4375 74.375 57.367188 C 74.464844 57.277344 74.546875 57.203125 74.585938 57.097656 C 74.605469 57.09375 74.617188 57.085938 74.628906 57.074219 C 74.792969 56.910156 74.613281 56.679688 74.503906 56.542969 C 74.410156 56.429688 74.304688 56.324219 74.25 56.199219 C 74.464844 56.230469 74.675781 56.3125 74.886719 56.289062 C 74.933594 56.363281 75.03125 56.402344 75.121094 56.359375 C 75.238281 56.300781 75.328125 56.210938 75.421875 56.121094 C 75.484375 56.058594 75.570312 55.945312 75.65625 55.914062 C 75.660156 55.914062 75.660156 55.914062 75.664062 55.910156 C 75.667969 55.917969 75.671875 55.925781 75.679688 55.9375 C 75.710938 55.992188 75.734375 56.050781 75.753906 56.109375 C 75.792969 56.222656 75.824219 56.339844 75.882812 56.449219 C 76.027344 56.714844 76.367188 56.847656 76.671875 56.835938 C 76.726562 56.960938 76.5625 57.015625 76.453125 57.066406 C 76.328125 57.125 76.195312 57.175781 76.085938 57.253906 C 75.757812 57.480469 75.863281 57.914062 75.804688 58.257812 C 75.558594 58.121094 75.539062 57.765625 75.285156 57.617188 C 75.222656 57.582031 75.152344 57.585938 75.097656 57.617188 C 74.964844 57.597656 74.820312 57.640625 74.683594 57.660156 C 74.5 57.6875 74.316406 57.703125 74.136719 57.667969 C 74.132812 57.667969 74.128906 57.667969 74.128906 57.667969 C 74.136719 57.640625 74.152344 57.621094 74.167969 57.597656 Z M 74.113281 57.660156 C 74.105469 57.65625 74.109375 57.65625 74.113281 57.660156 Z M 74.113281 57.660156 " fill-opacity="1" fill-rule="nonzero"/></g></g></g><g clip-path="url(#d70d663bf7)"><g clip-path="url(#ea2f1fbe71)"><g clip-path="url(#1335e6c722)"><path fill="#232941" d="M 74.117188 62.984375 C 74.304688 62.910156 74.378906 62.625 74.4375 62.457031 C 74.496094 62.300781 74.625 62.058594 74.605469 61.871094 C 74.902344 61.925781 75.210938 61.949219 75.394531 61.648438 C 75.582031 61.335938 75.226562 61.125 75.03125 60.945312 C 74.996094 60.914062 74.953125 60.890625 74.910156 60.875 C 74.886719 60.777344 74.9375 60.6875 74.992188 60.570312 C 75.085938 60.359375 75.15625 60.027344 74.980469 59.832031 C 74.824219 59.65625 74.570312 59.714844 74.382812 59.792969 C 74.261719 59.839844 74.148438 59.90625 74.039062 59.96875 C 73.964844 60.011719 73.859375 60.054688 73.789062 60.121094 C 73.496094 59.878906 73.007812 59.546875 72.765625 59.929688 C 72.640625 60.125 72.75 60.390625 72.839844 60.574219 C 72.882812 60.660156 72.957031 60.800781 73.050781 60.90625 C 72.683594 61.035156 72.273438 61.261719 72.191406 61.648438 C 72.171875 61.738281 72.195312 61.824219 72.277344 61.878906 C 72.550781 62.070312 73.046875 62.257812 73.375 62.136719 C 73.378906 62.136719 73.378906 62.136719 73.378906 62.136719 C 73.449219 62.53125 73.703125 63.148438 74.117188 62.984375 Z M 74.699219 60.109375 C 74.707031 60.109375 74.707031 60.113281 74.699219 60.109375 Z M 73.765625 62.386719 C 73.679688 62.222656 73.609375 62.0625 73.507812 61.910156 C 73.503906 61.90625 73.503906 61.90625 73.5 61.902344 C 73.480469 61.855469 73.445312 61.816406 73.390625 61.792969 C 73.25 61.730469 73.09375 61.746094 72.945312 61.71875 C 72.839844 61.699219 72.742188 61.667969 72.648438 61.621094 C 72.8125 61.375 73.210938 61.3125 73.371094 61.042969 C 73.402344 61.027344 73.429688 61 73.441406 60.964844 C 73.492188 60.820312 73.375 60.679688 73.316406 60.554688 C 73.273438 60.46875 73.230469 60.382812 73.1875 60.296875 C 73.171875 60.261719 73.164062 60.214844 73.152344 60.171875 C 73.15625 60.175781 73.160156 60.175781 73.164062 60.175781 C 73.246094 60.203125 73.324219 60.234375 73.402344 60.265625 C 73.515625 60.316406 73.628906 60.375 73.746094 60.398438 C 73.761719 60.414062 73.777344 60.429688 73.796875 60.441406 C 73.910156 60.507812 74.027344 60.4375 74.125 60.378906 C 74.238281 60.308594 74.351562 60.242188 74.472656 60.183594 C 74.53125 60.15625 74.59375 60.132812 74.652344 60.113281 C 74.679688 60.105469 74.695312 60.105469 74.703125 60.109375 C 74.789062 60.222656 74.640625 60.472656 74.601562 60.578125 C 74.550781 60.710938 74.535156 60.832031 74.589844 60.964844 C 74.605469 61.011719 74.632812 61.054688 74.664062 61.09375 C 74.691406 61.234375 74.832031 61.335938 74.933594 61.421875 C 74.945312 61.433594 74.964844 61.449219 74.980469 61.464844 C 74.960938 61.480469 74.9375 61.503906 74.917969 61.519531 C 74.78125 61.613281 74.617188 61.640625 74.46875 61.710938 C 74.421875 61.707031 74.375 61.722656 74.339844 61.75 C 74.238281 61.832031 74.222656 62.042969 74.1875 62.160156 C 74.140625 62.316406 74.101562 62.542969 74 62.667969 C 73.996094 62.675781 73.992188 62.679688 73.992188 62.679688 C 73.972656 62.675781 73.953125 62.660156 73.945312 62.648438 C 73.871094 62.5625 73.816406 62.480469 73.765625 62.386719 Z M 73.765625 62.386719 " fill-opacity="1" fill-rule="nonzero"/></g></g></g><g clip-path="url(#4ab2f623c7)"><g clip-path="url(#3f2131a281)"><path fill="#232941" d="M 173.523438 58.007812 L 177.375 58.007812 L 177.375 61.855469 L 173.523438 61.855469 Z M 173.523438 58.007812 " fill-opacity="1" fill-rule="nonzero"/></g></g><g clip-path="url(#b186be8805)"><g clip-path="url(#533bb41615)"><path fill="#232941" d="M 196.671875 23.617188 L 197.695312 23.617188 L 197.695312 24.640625 L 196.671875 24.640625 Z M 196.671875 23.617188 " fill-opacity="1" fill-rule="nonzero"/></g></g><g clip-path="url(#d6eedd5973)"><g clip-path="url(#5165a4d484)"><path fill="#fb6d4d" d="M 170.707031 63.136719 L 172 63.136719 L 172 64.429688 L 170.707031 64.429688 Z M 170.707031 63.136719 " fill-opacity="1" fill-rule="nonzero"/></g></g><g clip-path="url(#33187ce307)"><g clip-path="url(#1dbc2074d6)"><path fill="#fb6d4d" d="M 195.898438 19.40625 L 198.46875 19.40625 L 198.46875 21.976562 L 195.898438 21.976562 Z M 195.898438 19.40625 " fill-opacity="1" fill-rule="nonzero"/></g></g><g clip-path="url(#d3c545c9c3)"><g clip-path="url(#696f1a6bde)"><path fill="#fb6d4d" d="M 65.863281 18.191406 L 68.785156 18.191406 L 68.785156 21.109375 L 65.863281 21.109375 Z M 65.863281 18.191406 " fill-opacity="1" fill-rule="nonzero"/></g></g><g clip-path="url(#0d6e56aad9)"><g clip-path="url(#d6f88d438c)"><path fill="#fb6d4d" d="M 13.949219 41.574219 L 16.527344 41.574219 L 16.527344 44.152344 L 13.949219 44.152344 Z M 13.949219 41.574219 " fill-opacity="1" fill-rule="nonzero"/></g></g><g fill="#232941" fill-opacity="1"><g transform="translate(82.061573, 28.602767)"><g><path d="M 10.78125 -4.828125 C 10.695312 -5.882812 10.183594 -6.851562 9.351562 -7.550781 C 9.164062 -7.71875 8.976562 -7.855469 8.738281 -8.027344 C 8.621094 -8.109375 8.503906 -8.214844 8.367188 -8.316406 L 8.179688 -8.46875 L 8.367188 -8.605469 C 8.449219 -8.671875 8.519531 -8.722656 8.585938 -8.773438 C 8.722656 -8.859375 8.824219 -8.945312 8.910156 -9.027344 C 9.828125 -10 10.015625 -11.121094 9.453125 -12.292969 C 8.824219 -13.601562 7.703125 -14.300781 6.222656 -14.300781 C 6.15625 -14.300781 6.085938 -14.300781 6.019531 -14.300781 C 4.777344 -14.25 3.484375 -14.046875 2.175781 -13.722656 C 1.734375 -13.601562 1.308594 -13.179688 0.933594 -12.785156 L 0.78125 -12.652344 C 0.664062 -12.53125 0.613281 -12.378906 0.628906 -12.242188 C 0.644531 -12.140625 0.714844 -12.039062 0.832031 -11.953125 C 1.222656 -11.734375 1.207031 -11.425781 1.207031 -11.15625 L 1.207031 -11.085938 C 1.191406 -9.980469 1.171875 -8.859375 1.140625 -7.753906 C 1.121094 -6.359375 1.105469 -4.964844 1.070312 -3.570312 C 1.070312 -3.164062 1.019531 -2.789062 0.917969 -2.429688 C 0.78125 -1.871094 0.902344 -1.429688 1.273438 -1.121094 C 1.699219 -0.765625 2.140625 -0.511719 2.550781 -0.375 C 4.609375 0.324219 6.699219 0.0664062 8.996094 -1.171875 C 9.265625 -1.328125 9.554688 -1.582031 9.863281 -1.9375 C 10.542969 -2.753906 10.867188 -3.773438 10.78125 -4.828125 Z M 3.605469 -9.421875 C 3.585938 -9.914062 3.554688 -10.203125 3.535156 -10.492188 C 3.519531 -10.78125 3.484375 -11.085938 3.46875 -11.578125 L 3.453125 -11.734375 L 3.585938 -11.765625 C 4.761719 -12.191406 5.167969 -12.175781 5.765625 -12.140625 C 6.136719 -12.089844 6.496094 -12.003906 6.683594 -11.917969 C 6.902344 -11.816406 7.023438 -11.664062 7.089844 -11.496094 C 7.191406 -11.171875 7.003906 -10.832031 6.886719 -10.578125 L 6.800781 -10.472656 C 6.632812 -10.289062 6.394531 -10.015625 5.746094 -9.777344 C 5.324219 -9.605469 4.898438 -9.503906 4.453125 -9.402344 C 4.25 -9.351562 4.046875 -9.316406 3.84375 -9.25 L 3.621094 -9.199219 Z M 8.179688 -4.453125 C 8.109375 -3.960938 7.789062 -3.535156 7.261719 -3.28125 C 6.425781 -2.875 5.578125 -2.667969 4.726562 -2.667969 C 4.574219 -2.667969 4.4375 -2.667969 4.285156 -2.6875 C 3.824219 -2.71875 3.621094 -2.957031 3.65625 -3.417969 C 3.671875 -3.722656 3.671875 -4.03125 3.65625 -4.335938 C 3.65625 -4.421875 3.65625 -4.488281 3.65625 -4.558594 L 3.640625 -4.742188 L 3.640625 -5.136719 C 3.640625 -5.476562 3.640625 -5.816406 3.65625 -6.15625 C 3.65625 -6.308594 3.808594 -6.699219 4.03125 -6.714844 L 4.371094 -6.734375 C 5.457031 -6.820312 6.597656 -6.902344 7.566406 -5.984375 C 8.042969 -5.542969 8.265625 -4.980469 8.179688 -4.453125 Z M 8.179688 -4.453125 "/></g></g></g><g fill="#232941" fill-opacity="1"><g transform="translate(93.499332, 28.602767)"><g><path d="M 3.144531 -7.261719 C 3.128906 -7.738281 2.875 -8.109375 2.363281 -8.179688 C 1.835938 -8.246094 1.445312 -7.941406 1.359375 -7.464844 C 1.070312 -5.816406 0.78125 -4.132812 0.628906 -2.464844 C 0.542969 -1.582031 1.089844 -1.019531 1.699219 -0.96875 C 2.328125 -0.917969 2.839844 -1.445312 3.007812 -2.347656 C 3.0625 -2.6875 3.09375 -3.042969 3.113281 -3.382812 C 3.128906 -3.894531 3.179688 -6.480469 3.144531 -7.261719 Z M 1.886719 -9.640625 C 2.449219 -9.625 2.957031 -10.132812 2.976562 -10.761719 C 2.976562 -11.339844 2.535156 -11.800781 1.957031 -11.785156 C 1.378906 -11.785156 0.902344 -11.324219 0.902344 -10.730469 C 0.902344 -10.132812 1.328125 -9.660156 1.886719 -9.640625 Z M 1.886719 -9.640625 "/></g></g></g><g fill="#232941" fill-opacity="1"><g transform="translate(97.306254, 28.602767)"><g><path d="M 7.71875 -7.277344 C 7.6875 -8.042969 7.277344 -8.347656 6.496094 -8.484375 C 6.324219 -8.519531 6.171875 -8.605469 6.035156 -8.6875 C 5.40625 -9.097656 4.726562 -9.199219 4.03125 -9.011719 C 2.414062 -8.554688 1.257812 -7.566406 0.765625 -5.933594 C 0.375 -4.625 0.832031 -3.265625 1.921875 -2.414062 C 2.992188 -1.582031 4.132812 -1.460938 5.304688 -2.195312 C 5.375 -2.226562 5.457031 -2.246094 5.527344 -2.277344 C 5.507812 -1.003906 4.4375 0.511719 3.296875 0.902344 C 2.226562 1.273438 1.785156 2.109375 2.261719 2.875 C 2.636719 3.46875 3.214844 3.621094 3.875 3.554688 C 4.898438 3.433594 5.714844 2.90625 6.394531 2.140625 C 7.292969 1.089844 7.839844 -0.152344 7.871094 -1.496094 C 7.941406 -3.417969 7.820312 -5.355469 7.71875 -7.277344 Z M 4.097656 -4.472656 C 3.808594 -4.269531 3.453125 -4.574219 3.402344 -4.980469 C 3.332031 -5.78125 4.609375 -6.820312 5.441406 -6.5625 C 5.339844 -5.644531 4.847656 -4.980469 4.097656 -4.472656 Z M 4.097656 -4.472656 "/></g></g></g><g fill="#232941" fill-opacity="1"><g transform="translate(105.837832, 28.602767)"><g/></g></g><g fill="#232941" fill-opacity="1"><g transform="translate(110.715451, 28.602767)"><g><path d="M 8.214844 -6.15625 C 8.128906 -6.785156 7.53125 -7.242188 6.769531 -7.277344 C 6.257812 -7.3125 5.714844 -7.277344 5.203125 -7.242188 L 4.929688 -7.226562 C 4.589844 -7.210938 4.25 -7.175781 3.894531 -7.125 C 3.742188 -7.109375 3.585938 -7.089844 3.417969 -7.074219 L 3.230469 -7.058594 L 3.078125 -10.507812 L 4.148438 -10.507812 C 4.796875 -10.527344 5.425781 -10.527344 6.054688 -10.507812 C 7.058594 -10.472656 7.789062 -10.96875 7.839844 -11.683594 C 7.871094 -11.988281 7.769531 -12.292969 7.550781 -12.550781 C 7.261719 -12.890625 6.800781 -13.109375 6.308594 -13.144531 C 5.984375 -13.160156 5.664062 -13.160156 5.339844 -13.160156 C 4.488281 -13.160156 3.691406 -13.109375 3.027344 -13.042969 C 2.484375 -12.992188 1.886719 -12.839844 1.257812 -12.566406 C 0.953125 -12.445312 0.765625 -12.261719 0.679688 -12.023438 C 0.578125 -11.765625 0.613281 -11.445312 0.78125 -11.085938 C 0.882812 -10.882812 0.953125 -10.609375 0.933594 -10.371094 C 0.917969 -9.25 0.902344 -8.128906 0.882812 -7.003906 C 0.851562 -5.542969 0.816406 -4.082031 0.800781 -2.617188 C 0.78125 -2.125 0.832031 -1.582031 0.933594 -0.96875 C 1.039062 -0.324219 1.378906 0.0664062 1.871094 0.101562 C 2.378906 0.136719 2.875 -0.273438 3.027344 -0.832031 C 3.164062 -1.359375 3.195312 -1.9375 3.230469 -2.5 L 3.246094 -2.6875 C 3.28125 -3.027344 3.265625 -3.367188 3.265625 -3.707031 C 3.265625 -3.84375 3.265625 -3.996094 3.265625 -4.132812 L 3.265625 -4.25 L 3.367188 -4.300781 C 3.402344 -4.320312 3.433594 -4.335938 3.453125 -4.351562 C 3.503906 -4.371094 3.554688 -4.402344 3.621094 -4.402344 C 3.84375 -4.402344 4.0625 -4.386719 4.285156 -4.386719 C 4.726562 -4.386719 5.1875 -4.371094 5.628906 -4.386719 C 6.105469 -4.421875 6.648438 -4.472656 7.125 -4.625 C 7.890625 -4.863281 8.316406 -5.457031 8.214844 -6.15625 Z M 8.214844 -6.15625 "/></g></g></g><g fill="#232941" fill-opacity="1"><g transform="translate(119.569948, 28.602767)"><g><path d="M 7.328125 -8.230469 C 6.664062 -8.910156 5.847656 -9.351562 4.914062 -9.523438 C 3.554688 -9.777344 2.3125 -9.234375 1.546875 -8.09375 C 0.96875 -7.210938 0.730469 -6.222656 0.644531 -5.1875 C 0.425781 -2.703125 2.140625 -0.628906 5.269531 -0.953125 C 5.714844 -0.984375 6.242188 -1.292969 6.5625 -1.617188 C 7.160156 -2.246094 6.953125 -2.992188 6.136719 -3.246094 C 5.578125 -3.433594 4.964844 -3.453125 4.386719 -3.554688 C 4.082031 -3.621094 3.792969 -3.722656 3.484375 -3.824219 C 4.539062 -4.011719 5.558594 -4.082031 6.480469 -4.402344 C 8.230469 -5.015625 8.621094 -6.886719 7.328125 -8.230469 Z M 5.816406 -6.597656 C 5.050781 -6.511719 4.269531 -6.425781 3.417969 -6.34375 C 3.554688 -6.851562 3.773438 -7.242188 4.285156 -7.398438 C 4.863281 -7.566406 5.578125 -7.277344 6.019531 -6.683594 C 5.917969 -6.632812 5.867188 -6.597656 5.816406 -6.597656 Z M 5.816406 -6.597656 "/></g></g></g><g fill="#232941" fill-opacity="1"><g transform="translate(128.305471, 28.602767)"><g><path d="M 7.328125 -8.230469 C 6.664062 -8.910156 5.847656 -9.351562 4.914062 -9.523438 C 3.554688 -9.777344 2.3125 -9.234375 1.546875 -8.09375 C 0.96875 -7.210938 0.730469 -6.222656 0.644531 -5.1875 C 0.425781 -2.703125 2.140625 -0.628906 5.269531 -0.953125 C 5.714844 -0.984375 6.242188 -1.292969 6.5625 -1.617188 C 7.160156 -2.246094 6.953125 -2.992188 6.136719 -3.246094 C 5.578125 -3.433594 4.964844 -3.453125 4.386719 -3.554688 C 4.082031 -3.621094 3.792969 -3.722656 3.484375 -3.824219 C 4.539062 -4.011719 5.558594 -4.082031 6.480469 -4.402344 C 8.230469 -5.015625 8.621094 -6.886719 7.328125 -8.230469 Z M 5.816406 -6.597656 C 5.050781 -6.511719 4.269531 -6.425781 3.417969 -6.34375 C 3.554688 -6.851562 3.773438 -7.242188 4.285156 -7.398438 C 4.863281 -7.566406 5.578125 -7.277344 6.019531 -6.683594 C 5.917969 -6.632812 5.867188 -6.597656 5.816406 -6.597656 Z M 5.816406 -6.597656 "/></g></g></g><g fill="#232941" fill-opacity="1"><g transform="translate(137.040995, 28.602767)"><g><path d="M 3.0625 -10.847656 C 3.027344 -11.289062 2.992188 -11.765625 2.789062 -12.140625 C 2.652344 -12.414062 2.261719 -12.71875 1.972656 -12.71875 C 1.683594 -12.71875 1.34375 -12.414062 1.121094 -12.15625 C 0.96875 -11.953125 0.917969 -11.628906 0.882812 -11.339844 C 0.730469 -9.660156 0.59375 -4.285156 0.628906 -3.296875 C 0.628906 -2.875 0.695312 -2.449219 0.800781 -2.039062 C 0.984375 -1.394531 1.445312 -1.019531 1.972656 -1.003906 C 2.5 -0.984375 3.027344 -1.328125 3.195312 -1.972656 C 3.367188 -2.703125 3.503906 -3.453125 3.46875 -4.199219 C 3.382812 -6.410156 3.214844 -8.636719 3.0625 -10.847656 Z M 3.0625 -10.847656 "/></g></g></g><g fill="#232941" fill-opacity="1"><g transform="translate(141.153828, 28.602767)"><g><path d="M 3.144531 -7.261719 C 3.128906 -7.738281 2.875 -8.109375 2.363281 -8.179688 C 1.835938 -8.246094 1.445312 -7.941406 1.359375 -7.464844 C 1.070312 -5.816406 0.78125 -4.132812 0.628906 -2.464844 C 0.542969 -1.582031 1.089844 -1.019531 1.699219 -0.96875 C 2.328125 -0.917969 2.839844 -1.445312 3.007812 -2.347656 C 3.0625 -2.6875 3.09375 -3.042969 3.113281 -3.382812 C 3.128906 -3.894531 3.179688 -6.480469 3.144531 -7.261719 Z M 1.886719 -9.640625 C 2.449219 -9.625 2.957031 -10.132812 2.976562 -10.761719 C 2.976562 -11.339844 2.535156 -11.800781 1.957031 -11.785156 C 1.378906 -11.785156 0.902344 -11.324219 0.902344 -10.730469 C 0.902344 -10.132812 1.328125 -9.660156 1.886719 -9.640625 Z M 1.886719 -9.640625 "/></g></g></g><g fill="#232941" fill-opacity="1"><g transform="translate(144.96075, 28.602767)"><g><path d="M 7.839844 -7.347656 C 6.886719 -8.621094 5.40625 -8.824219 4.113281 -7.90625 C 3.742188 -7.636719 3.402344 -7.3125 3.007812 -6.972656 C 2.941406 -7.109375 2.90625 -7.191406 2.875 -7.292969 C 2.71875 -7.820312 2.484375 -8.316406 1.835938 -8.296875 C 1.15625 -8.265625 0.953125 -7.703125 0.902344 -7.160156 C 0.78125 -5.59375 0.664062 -4.03125 0.628906 -2.464844 C 0.59375 -1.597656 1.171875 -1.003906 1.921875 -0.917969 C 2.667969 -0.832031 3.316406 -1.308594 3.519531 -2.175781 C 3.792969 -3.382812 4.453125 -4.386719 5.203125 -5.339844 C 5.324219 -5.492188 5.492188 -5.59375 5.730469 -5.816406 C 5.816406 -5.375 5.867188 -5.085938 5.902344 -4.777344 C 6.019531 -3.980469 6.070312 -3.144531 6.273438 -2.347656 C 6.445312 -1.667969 7.023438 -1.328125 7.617188 -1.34375 C 8.160156 -1.378906 8.6875 -1.785156 8.792969 -2.464844 C 9.0625 -4.199219 8.910156 -5.882812 7.839844 -7.347656 Z M 7.839844 -7.347656 "/></g></g></g><g fill="#232941" fill-opacity="1"><g transform="translate(154.512042, 28.602767)"><g><path d="M 7.71875 -7.277344 C 7.6875 -8.042969 7.277344 -8.347656 6.496094 -8.484375 C 6.324219 -8.519531 6.171875 -8.605469 6.035156 -8.6875 C 5.40625 -9.097656 4.726562 -9.199219 4.03125 -9.011719 C 2.414062 -8.554688 1.257812 -7.566406 0.765625 -5.933594 C 0.375 -4.625 0.832031 -3.265625 1.921875 -2.414062 C 2.992188 -1.582031 4.132812 -1.460938 5.304688 -2.195312 C 5.375 -2.226562 5.457031 -2.246094 5.527344 -2.277344 C 5.507812 -1.003906 4.4375 0.511719 3.296875 0.902344 C 2.226562 1.273438 1.785156 2.109375 2.261719 2.875 C 2.636719 3.46875 3.214844 3.621094 3.875 3.554688 C 4.898438 3.433594 5.714844 2.90625 6.394531 2.140625 C 7.292969 1.089844 7.839844 -0.152344 7.871094 -1.496094 C 7.941406 -3.417969 7.820312 -5.355469 7.71875 -7.277344 Z M 4.097656 -4.472656 C 3.808594 -4.269531 3.453125 -4.574219 3.402344 -4.980469 C 3.332031 -5.78125 4.609375 -6.820312 5.441406 -6.5625 C 5.339844 -5.644531 4.847656 -4.980469 4.097656 -4.472656 Z M 4.097656 -4.472656 "/></g></g></g><g fill="#232941" fill-opacity="1"><g transform="translate(163.043621, 28.602767)"><g><path d="M 6.480469 -4.914062 C 5.832031 -5.507812 4.964844 -5.882812 4.183594 -6.359375 C 3.960938 -6.496094 3.722656 -6.582031 3.433594 -6.734375 C 4.046875 -7.449219 4.640625 -7.550781 5.457031 -7.109375 C 5.832031 -6.921875 6.242188 -6.75 6.53125 -7.089844 C 6.75 -7.347656 6.886719 -7.789062 6.851562 -8.109375 C 6.75 -8.960938 6.191406 -9.488281 5.390625 -9.742188 C 3.773438 -10.253906 1.734375 -9.402344 0.953125 -7.90625 C 0.425781 -6.886719 0.511719 -5.796875 1.378906 -5.050781 C 1.9375 -4.574219 2.652344 -4.300781 3.316406 -3.980469 C 3.707031 -3.773438 4.132812 -3.671875 4.539062 -3.519531 C 4.523438 -3.453125 4.507812 -3.382812 4.488281 -3.296875 C 3.945312 -3.351562 3.417969 -3.402344 2.890625 -3.46875 C 2.109375 -3.554688 1.496094 -3.296875 1.257812 -2.753906 C 1.003906 -2.175781 1.15625 -1.410156 1.785156 -1.019531 C 2.328125 -0.679688 2.976562 -0.40625 3.585938 -0.355469 C 4.269531 -0.324219 4.980469 -0.492188 5.628906 -0.730469 C 7.617188 -1.480469 8.042969 -3.46875 6.480469 -4.914062 Z M 6.480469 -4.914062 "/></g></g></g></svg>